<?xml version="1.0" encoding="UTF-8"?>
<svg width="71px" height="72px" viewBox="0 0 71 72" version="1.1" xmlns="http://www.w3.org/2000/svg" xmlns:xlink="http://www.w3.org/1999/xlink">
    <!-- Generator: sketchtool 64 (101010) - https://sketch.com -->
    <title>9CB78EEA-12D1-435A-BEC5-CE19FA832D5A@1x</title>
    <desc>Created with sketchtool.</desc>
    <defs>
        <polygon id="path-1" points="0.0889086287 0.071154878 2.42472111 0.071154878 2.42472111 3.18603293 0.0889086287 3.18603293"></polygon>
    </defs>
    <g id="Page-1" stroke="none" stroke-width="1" fill="none" fill-rule="evenodd">
        <g id="Covid19-Updated" transform="translate(-254.000000, -4.000000)">
            <g id="Group-9">
                <g id="logo" transform="translate(254.000000, 4.000000)">
                    <g id="Group-64">
                        <path d="M68.1309545,23.6932354 C63.1509992,10.8648329 51.0901888,2.08928415 37.4046926,1.33624756 L37.4226341,1.00752805 C51.2364553,1.76747927 63.410275,10.6252354 68.4368344,23.573711 L68.1309545,23.6932354 Z" id="Fill-1" fill="#231F20"></path>
                        <polygon id="Fill-3" fill="#231F20" points="69.0959419 22.3513463 68.1316985 23.2565049 66.813002 23.1885659 68.943549 25.4846634"></polygon>
                        <polygon id="Fill-5" fill="#231F20" points="38.3757954 1.09756098e-05 37.8175319 1.20052317 38.2913393 2.43714512 35.4542931 1.1182061"></polygon>
                        <path d="M57.8512376,63.93465 L57.6433794,63.6799061 C65.8196475,56.9651378 70.5089294,47.0408817 70.5089294,36.4518329 C70.5089294,33.3866744 70.1155304,30.3444549 69.3395627,27.4097963 L69.65682,27.3252841 C70.440008,30.2876012 70.8371267,33.3581378 70.8371267,36.4518329 C70.8371267,47.1399915 66.1039757,57.157211 57.8512376,63.93465" id="Fill-7" fill="#231F20"></path>
                        <polygon id="Fill-9" fill="#231F20" points="59.2154659 64.1899646 58.0601023 63.54855 57.7182302 62.2689037 56.1972549 65.0098427"></polygon>
                        <g id="Group-13" transform="translate(68.483821, 25.413585)">
                            <mask id="mask-2" fill="white">
                                <use xlink:href="#path-1"></use>
                            </mask>
                            <g id="Clip-12"></g>
                            <polygon id="Fill-11" fill="#231F20" mask="url(#mask-2)" points="2.42479769 2.5113622 1.11397797 2.35089878 0.0889086287 3.18603293 0.459771495 0.071154878"></polygon>
                        </g>
                        <path d="M35.4542931,71.9501707 C28.60427,71.9501707 21.9587137,69.9834512 16.2362669,66.2626098 L16.4148062,65.9863537 C22.0839757,69.6725122 28.6677214,71.6209024 35.4542931,71.6209024 C42.2408647,71.6209024 48.8246105,69.6725122 54.49378,65.9863537 L54.6722099,66.2626098 C48.9498724,69.9834512 42.3044256,71.9501707 35.4542931,71.9501707" id="Fill-14" fill="#231F20"></path>
                        <polygon id="Fill-16" fill="#231F20" points="16.4134496 67.6415524 16.6683495 66.3416012 17.7778749 65.6233573 14.7113094 65.0099305"></polygon>
                        <polygon id="Fill-18" fill="#231F20" points="54.495224 67.6414427 54.2403242 66.3416012 53.1306894 65.6232476 56.1972549 65.0098207"></polygon>
                        <path d="M13.0573376,63.93465 C4.80459954,57.157211 0.0714485362,47.1399915 0.0714485362,36.4518329 C0.0714485362,33.3590159 0.468348382,30.2893573 1.25120817,27.3278085 L1.56835609,27.412211 C0.79282604,30.346211 0.399645763,33.3875524 0.399645763,36.4518329 C0.399645763,47.0408817 5.08892773,56.9651378 13.2651958,63.6799061 L13.0573376,63.93465 Z" id="Fill-20" fill="#231F20"></path>
                        <polygon id="Fill-22" fill="#231F20" points="1.09399076e-05 27.9249037 1.31072126 27.7644402 2.3357906 28.5995744 1.96492773 25.4846963"></polygon>
                        <polygon id="Fill-24" fill="#231F20" points="11.6931639 64.1900195 12.848637 63.5486049 13.1905091 62.2689585 14.711375 65.0098976"></polygon>
                        <path d="M2.77751125,23.6934439 L2.47163143,23.5739195 C7.49819076,10.6253341 19.6720105,1.76746829 33.4860505,1.00751707 L33.503992,1.33623659 C19.818277,2.08916341 7.75746656,10.864822 2.77751125,23.6934439" id="Fill-26" fill="#231F20"></path>
                        <polygon id="Fill-28" fill="#231F20" points="32.5327798 1.09756098e-05 33.0910433 1.20052317 32.6172359 2.43714512 35.4542821 1.1182061"></polygon>
                        <polygon id="Fill-30" fill="#231F20" points="1.81268798 22.3512915 2.77682203 23.25645 4.09562789 23.188511 1.96497149 25.4846085"></polygon>
                        <polygon id="Fill-32" fill="#00FF02" points="43.4266413 25.556411 43.4184364 25.5311671 27.5648693 25.5311671 22.6752777 40.6286671 22.7265858 40.6660939 35.4915982 36.4518988"></polygon>
                        <path d="M27.6840706,25.6958012 L22.9115359,40.4316549 L35.3901414,36.3120695 L43.1219211,25.6958012 L27.6840706,25.6958012 Z M22.6980983,40.8488378 L22.4823633,40.6915573 L27.4455806,25.3665329 L43.5374188,25.3665329 L43.608747,25.5853866 L35.5929673,36.591728 L35.5428626,36.6083012 L22.6980983,40.8488378 Z" id="Fill-34" fill="#231F20"></path>
                        <polygon id="Fill-36" fill="#F7000B" points="22.7266077 40.666039 35.4781639 49.9607341 42.1794043 45.0761488 35.49162 36.4518439"></polygon>
                        <path d="M23.0824173,40.7218829 L35.4782077,49.7572244 L41.9457716,45.0429805 L35.4331353,36.6445537 L23.0824173,40.7218829 Z M35.4782077,50.1642 L22.3707763,40.6101512 L35.5501923,36.2592 L42.4130151,45.1093829 L35.4782077,50.1642 Z" id="Fill-38" fill="#231F20"></path>
                        <polygon id="Fill-40" fill="#0100C7" points="35.491631 36.4518988 42.1794153 45.0760939 48.3028097 40.6126427 43.4266741 25.556411"></polygon>
                        <path d="M35.6971262,36.4487927 L42.2114035,44.8493049 L48.1098735,40.5498293 L43.3698304,25.9135244 L35.6971262,36.4487927 Z M42.1474051,45.3029268 L35.2861139,36.4550488 L43.4836054,25.1992317 L48.495724,40.6755 L42.1474051,45.3029268 Z" id="Fill-42" fill="#231F20"></path>
                        <polygon id="Fill-44" fill="#CC7801" points="43.4266413 25.556411 48.3027769 40.6126427 59.3042761 32.5935329 68.8982468 25.5620085 57.0857723 25.5311671 43.4450203 25.5311671"></polygon>
                        <path d="M43.6443126,25.6958012 L48.3890599,40.3462646 L59.2077533,32.4603988 L68.3971663,25.7253256 L57.0853018,25.6958012 L43.6443126,25.6958012 Z M48.2164282,40.8790207 L43.2446778,25.5272159 L43.3617348,25.3665329 L57.0857394,25.3665329 L69.3992618,25.3985817 L59.4010615,32.7265573 L48.2164282,40.8790207 Z" id="Fill-46" fill="#231F20"></path>
                        <polygon id="Fill-48" fill="#C900CD" points="43.4160077 25.4848061 41.2429045 18.7747573 35.4891695 1.16515976 29.7352157 18.7759646 27.5624407 25.4848061"></polygon>
                        <path d="M27.7882841,25.320172 L43.1901424,25.320172 L41.0868357,18.8255744 L35.4892133,1.69363537 L29.8911532,18.8272207 L27.7882841,25.320172 Z M43.6418512,25.6494402 L27.3365753,25.6494402 L29.579147,18.7251476 L35.4892133,0.63657439 L41.3988419,18.7233915 L43.6418512,25.6494402 Z" id="Fill-50" fill="#231F20"></path>
                        <polygon id="Fill-52" fill="#5155FA" points="50.4759348 47.3229988 48.3028316 40.6126207 42.1794371 45.076072 42.2470458 45.163328 42.1794371 45.076072 35.4780874 49.9606573 41.5592538 54.3933768 56.1381028 64.962011"></polygon>
                        <path d="M35.7572191,49.9606902 L41.6556891,54.2601659 L55.8284487,64.5344341 L50.3197676,47.3735195 L48.2165704,40.8790317 L42.2758724,45.209239 L42.2442561,45.1655561 L42.2758724,45.209239 L35.7572191,49.9606902 Z M56.4477569,65.3896537 L41.4631467,54.5268732 L35.1988462,49.9606902 L48.3890928,40.3461659 L50.632102,47.2725439 L56.4477569,65.3896537 Z" id="Fill-54" fill="#231F20"></path>
                        <polygon id="Fill-56" fill="#FEFD00" points="22.7266077 40.666039 22.6664382 40.6859049 22.7266077 40.666039 22.6752995 40.6286122 20.5073381 47.3226366 14.8452795 64.961978 24.4738203 57.9819293 35.4781639 49.9607341"></polygon>
                        <path d="M22.7615935,40.8950341 L20.6634287,47.3734976 L15.1549664,64.5343024 L24.3777461,57.8485098 L35.1989556,49.960778 L22.7615935,40.8950341 Z M14.5356582,65.389522 L20.3510943,47.2721927 L22.5890712,40.3621683 L35.7573285,49.960778 L24.5702884,58.1151073 L14.5356582,65.389522 Z" id="Fill-58" fill="#231F20"></path>
                        <polygon id="Fill-60" fill="#FF7702" points="27.5522884 25.5310024 13.8849525 25.5310024 2.07247797 25.5618439 16.5969556 36.2070878 22.6628062 40.6285024"></polygon>
                        <path d="M2.57346009,25.725172 L16.6937082,36.0741841 L22.5765341,40.3620256 L27.3264231,25.6956476 L13.8848869,25.6956476 L2.57346009,25.725172 Z M22.7490564,40.8948915 L16.5005094,36.3402329 L1.57147396,25.398428 L13.8845587,25.3663793 L27.7781319,25.3663793 L22.7490564,40.8948915 Z" id="Fill-62" fill="#231F20"></path>
                    </g>
                </g>
            </g>
        </g>
    </g>
</svg>