<?xml version="1.0" encoding="UTF-8"?>
<svg width="75px" height="74px" viewBox="0 0 75 74" version="1.1" xmlns="http://www.w3.org/2000/svg" xmlns:xlink="http://www.w3.org/1999/xlink">
    <!-- Generator: sketchtool 64 (101010) - https://sketch.com -->
    <title>CB210D51-9B45-4268-9B6E-71F0FDB0162D@1x</title>
    <desc>Created with sketchtool.</desc>
    <defs>
        <polygon id="path-1" points="0.0889086287 0.071154878 2.42472111 0.071154878 2.42472111 3.18603293 0.0889086287 3.18603293"></polygon>
    </defs>
    <g id="Page-1" stroke="none" stroke-width="1" fill="none" fill-rule="evenodd">
        <g id="Covid19-Updated" transform="translate(-255.000000, -3.000000)">
            <g id="logo" transform="translate(255.000000, 3.000000)">
                <ellipse id="Oval" fill="#FFFFFF" cx="37.5" cy="37" rx="37.5" ry="37"></ellipse>
                <g transform="translate(2.000000, 0.500000)" id="Group-64">
                    <g>
                        <path d="M68.1309545,23.6932354 C63.1509992,10.8648329 51.0901888,2.08928415 37.4046926,1.33624756 L37.4226341,1.00752805 C51.2364553,1.76747927 63.410275,10.6252354 68.4368344,23.573711 L68.1309545,23.6932354 Z" id="Fill-1" fill="#231F20"></path>
                        <polygon id="Fill-3" fill="#231F20" points="69.0959419 22.3513463 68.1316985 23.2565049 66.813002 23.1885659 68.943549 25.4846634"></polygon>
                        <polygon id="Fill-5" fill="#231F20" points="38.3757954 1.09756098e-05 37.8175319 1.20052317 38.2913393 2.43714512 35.4542931 1.1182061"></polygon>
                        <path d="M57.8512376,63.93465 L57.6433794,63.6799061 C65.8196475,56.9651378 70.5089294,47.0408817 70.5089294,36.4518329 C70.5089294,33.3866744 70.1155304,30.3444549 69.3395627,27.4097963 L69.65682,27.3252841 C70.440008,30.2876012 70.8371267,33.3581378 70.8371267,36.4518329 C70.8371267,47.1399915 66.1039757,57.157211 57.8512376,63.93465" id="Fill-7" fill="#231F20"></path>
                        <polygon id="Fill-9" fill="#231F20" points="59.2154659 64.1899646 58.0601023 63.54855 57.7182302 62.2689037 56.1972549 65.0098427"></polygon>
                        <g id="Group-13" transform="translate(68.483821, 25.413585)">
                            <mask id="mask-2" fill="white">
                                <use xlink:href="#path-1"></use>
                            </mask>
                            <g id="Clip-12"></g>
                            <polygon id="Fill-11" fill="#231F20" mask="url(#mask-2)" points="2.42479769 2.5113622 1.11397797 2.35089878 0.0889086287 3.18603293 0.459771495 0.071154878"></polygon>
                        </g>
                        <path d="M35.4542931,71.9501707 C28.60427,71.9501707 21.9587137,69.9834512 16.2362669,66.2626098 L16.4148062,65.9863537 C22.0839757,69.6725122 28.6677214,71.6209024 35.4542931,71.6209024 C42.2408647,71.6209024 48.8246105,69.6725122 54.49378,65.9863537 L54.6722099,66.2626098 C48.9498724,69.9834512 42.3044256,71.9501707 35.4542931,71.9501707" id="Fill-14" fill="#231F20"></path>
                        <polygon id="Fill-16" fill="#231F20" points="16.4134496 67.6415524 16.6683495 66.3416012 17.7778749 65.6233573 14.7113094 65.0099305"></polygon>
                        <polygon id="Fill-18" fill="#231F20" points="54.495224 67.6414427 54.2403242 66.3416012 53.1306894 65.6232476 56.1972549 65.0098207"></polygon>
                        <path d="M13.0573376,63.93465 C4.80459954,57.157211 0.0714485362,47.1399915 0.0714485362,36.4518329 C0.0714485362,33.3590159 0.468348382,30.2893573 1.25120817,27.3278085 L1.56835609,27.412211 C0.79282604,30.346211 0.399645763,33.3875524 0.399645763,36.4518329 C0.399645763,47.0408817 5.08892773,56.9651378 13.2651958,63.6799061 L13.0573376,63.93465 Z" id="Fill-20" fill="#231F20"></path>
                        <polygon id="Fill-22" fill="#231F20" points="1.09399076e-05 27.9249037 1.31072126 27.7644402 2.3357906 28.5995744 1.96492773 25.4846963"></polygon>
                        <polygon id="Fill-24" fill="#231F20" points="11.6931639 64.1900195 12.848637 63.5486049 13.1905091 62.2689585 14.711375 65.0098976"></polygon>
                        <path d="M2.77751125,23.6934439 L2.47163143,23.5739195 C7.49819076,10.6253341 19.6720105,1.76746829 33.4860505,1.00751707 L33.503992,1.33623659 C19.818277,2.08916341 7.75746656,10.864822 2.77751125,23.6934439" id="Fill-26" fill="#231F20"></path>
                        <polygon id="Fill-28" fill="#231F20" points="32.5327798 1.09756098e-05 33.0910433 1.20052317 32.6172359 2.43714512 35.4542821 1.1182061"></polygon>
                        <polygon id="Fill-30" fill="#231F20" points="1.81268798 22.3512915 2.77682203 23.25645 4.09562789 23.188511 1.96497149 25.4846085"></polygon>
                        <polygon id="Fill-32" fill="#00FF02" points="43.4266413 25.556411 43.4184364 25.5311671 27.5648693 25.5311671 22.6752777 40.6286671 22.7265858 40.6660939 35.4915982 36.4518988"></polygon>
                        <path d="M27.6840706,25.6958012 L22.9115359,40.4316549 L35.3901414,36.3120695 L43.1219211,25.6958012 L27.6840706,25.6958012 Z M22.6980983,40.8488378 L22.4823633,40.6915573 L27.4455806,25.3665329 L43.5374188,25.3665329 L43.608747,25.5853866 L35.5929673,36.591728 L35.5428626,36.6083012 L22.6980983,40.8488378 Z" id="Fill-34" fill="#231F20"></path>
                        <polygon id="Fill-36" fill="#F7000B" points="22.7266077 40.666039 35.4781639 49.9607341 42.1794043 45.0761488 35.49162 36.4518439"></polygon>
                        <path d="M23.0824173,40.7218829 L35.4782077,49.7572244 L41.9457716,45.0429805 L35.4331353,36.6445537 L23.0824173,40.7218829 Z M35.4782077,50.1642 L22.3707763,40.6101512 L35.5501923,36.2592 L42.4130151,45.1093829 L35.4782077,50.1642 Z" id="Fill-38" fill="#231F20"></path>
                        <polygon id="Fill-40" fill="#0100C7" points="35.491631 36.4518988 42.1794153 45.0760939 48.3028097 40.6126427 43.4266741 25.556411"></polygon>
                        <path d="M35.6971262,36.4487927 L42.2114035,44.8493049 L48.1098735,40.5498293 L43.3698304,25.9135244 L35.6971262,36.4487927 Z M42.1474051,45.3029268 L35.2861139,36.4550488 L43.4836054,25.1992317 L48.495724,40.6755 L42.1474051,45.3029268 Z" id="Fill-42" fill="#231F20"></path>
                        <polygon id="Fill-44" fill="#CC7801" points="43.4266413 25.556411 48.3027769 40.6126427 59.3042761 32.5935329 68.8982468 25.5620085 57.0857723 25.5311671 43.4450203 25.5311671"></polygon>
                        <path d="M43.6443126,25.6958012 L48.3890599,40.3462646 L59.2077533,32.4603988 L68.3971663,25.7253256 L57.0853018,25.6958012 L43.6443126,25.6958012 Z M48.2164282,40.8790207 L43.2446778,25.5272159 L43.3617348,25.3665329 L57.0857394,25.3665329 L69.3992618,25.3985817 L59.4010615,32.7265573 L48.2164282,40.8790207 Z" id="Fill-46" fill="#231F20"></path>
                        <polygon id="Fill-48" fill="#C900CD" points="43.4160077 25.4848061 41.2429045 18.7747573 35.4891695 1.16515976 29.7352157 18.7759646 27.5624407 25.4848061"></polygon>
                        <path d="M27.7882841,25.320172 L43.1901424,25.320172 L41.0868357,18.8255744 L35.4892133,1.69363537 L29.8911532,18.8272207 L27.7882841,25.320172 Z M43.6418512,25.6494402 L27.3365753,25.6494402 L29.579147,18.7251476 L35.4892133,0.63657439 L41.3988419,18.7233915 L43.6418512,25.6494402 Z" id="Fill-50" fill="#231F20"></path>
                        <polygon id="Fill-52" fill="#5155FA" points="50.4759348 47.3229988 48.3028316 40.6126207 42.1794371 45.076072 42.2470458 45.163328 42.1794371 45.076072 35.4780874 49.9606573 41.5592538 54.3933768 56.1381028 64.962011"></polygon>
                        <path d="M35.7572191,49.9606902 L41.6556891,54.2601659 L55.8284487,64.5344341 L50.3197676,47.3735195 L48.2165704,40.8790317 L42.2758724,45.209239 L42.2442561,45.1655561 L42.2758724,45.209239 L35.7572191,49.9606902 Z M56.4477569,65.3896537 L41.4631467,54.5268732 L35.1988462,49.9606902 L48.3890928,40.3461659 L50.632102,47.2725439 L56.4477569,65.3896537 Z" id="Fill-54" fill="#231F20"></path>
                        <polygon id="Fill-56" fill="#FEFD00" points="22.7266077 40.666039 22.6664382 40.6859049 22.7266077 40.666039 22.6752995 40.6286122 20.5073381 47.3226366 14.8452795 64.961978 24.4738203 57.9819293 35.4781639 49.9607341"></polygon>
                        <path d="M22.7615935,40.8950341 L20.6634287,47.3734976 L15.1549664,64.5343024 L24.3777461,57.8485098 L35.1989556,49.960778 L22.7615935,40.8950341 Z M14.5356582,65.389522 L20.3510943,47.2721927 L22.5890712,40.3621683 L35.7573285,49.960778 L24.5702884,58.1151073 L14.5356582,65.389522 Z" id="Fill-58" fill="#231F20"></path>
                        <polygon id="Fill-60" fill="#FF7702" points="27.5522884 25.5310024 13.8849525 25.5310024 2.07247797 25.5618439 16.5969556 36.2070878 22.6628062 40.6285024"></polygon>
                        <path d="M2.57346009,25.725172 L16.6937082,36.0741841 L22.5765341,40.3620256 L27.3264231,25.6956476 L13.8848869,25.6956476 L2.57346009,25.725172 Z M22.7490564,40.8948915 L16.5005094,36.3402329 L1.57147396,25.398428 L13.8845587,25.3663793 L27.7781319,25.3663793 L22.7490564,40.8948915 Z" id="Fill-62" fill="#231F20"></path>
                    </g>
                </g>
                <g id="Group-23" transform="translate(7.000000, 17.000000)" fill-rule="nonzero">
                    <path d="M2.609375,4 L2.609375,2.890625 C2.609375,2.62109375 2.66373698,2.43489583 2.77246094,2.33203125 C2.8811849,2.22916667 3.00195312,2.17773438 3.13476562,2.17773438 C3.28059896,2.17773438 3.38020833,2.2265625 3.43359375,2.32421875 C3.46744792,2.38932292 3.484375,2.49283854 3.484375,2.63476562 L3.484375,2.63476562 L3.484375,4 L3.84179688,4 L3.84179688,2.78320312 C3.84179688,2.56705729 3.89160156,2.41276042 3.99121094,2.3203125 C4.09082031,2.22786458 4.20963542,2.18164062 4.34765625,2.18164062 C4.44791667,2.18164062 4.5328776,2.20768229 4.60253906,2.25976562 C4.67220052,2.31184896 4.70703125,2.40755208 4.70703125,2.546875 L4.70703125,2.546875 L4.70703125,4 L5.07226562,4 L5.07226562,2.60742188 C5.07226562,2.42252604 5.04492188,2.27539062 4.99023438,2.16601562 C4.88867188,1.96289062 4.69726562,1.86132812 4.41601562,1.86132812 C4.28450521,1.86132812 4.16601562,1.88834635 4.06054688,1.94238281 C3.95507812,1.99641927 3.86328125,2.07942708 3.78515625,2.19140625 C3.73828125,2.10026042 3.68619792,2.03125 3.62890625,1.984375 C3.52734375,1.90234375 3.39322917,1.86132812 3.2265625,1.86132812 C3.07942708,1.86132812 2.94791667,1.90104167 2.83203125,1.98046875 C2.76432292,2.02734375 2.68880208,2.10221354 2.60546875,2.20507812 L2.60546875,2.20507812 L2.60546875,1.90820312 L2.2578125,1.90820312 L2.2578125,4 L2.609375,4 Z M6.38671875,4.07617188 C6.73177083,4.07617188 6.98632812,3.96614583 7.15039062,3.74609375 C7.31445312,3.52604167 7.39648438,3.24739583 7.39648438,2.91015625 C7.39648438,2.56119792 7.30338542,2.296875 7.1171875,2.1171875 C6.93098958,1.9375 6.703125,1.84765625 6.43359375,1.84765625 C6.1328125,1.84765625 5.89322917,1.95182292 5.71484375,2.16015625 C5.53645833,2.36848958 5.44726562,2.6484375 5.44726562,3 C5.44726562,3.328125 5.53190104,3.58951823 5.70117188,3.78417969 C5.87044271,3.97884115 6.09895833,4.07617188 6.38671875,4.07617188 Z M6.41992188,3.7734375 C6.20768229,3.7734375 6.05273438,3.69921875 5.95507812,3.55078125 C5.85742188,3.40234375 5.80859375,3.21679688 5.80859375,2.99414062 C5.80859375,2.76236979 5.85742188,2.56445312 5.95507812,2.40039062 C6.05273438,2.23632812 6.20898438,2.15429688 6.42382812,2.15429688 C6.66601562,2.15429688 6.83658854,2.25065104 6.93554688,2.44335938 C6.99804688,2.56575521 7.02929688,2.72460938 7.02929688,2.91992188 C7.02929688,3.13606771 6.9860026,3.33235677 6.89941406,3.50878906 C6.81282552,3.68522135 6.65299479,3.7734375 6.41992188,3.7734375 Z M8.72460938,4 L9.51367188,1.90820312 L9.12890625,1.90820312 L8.54492188,3.61132812 L7.98632812,1.90820312 L7.578125,1.90820312 L8.34960938,4 L8.72460938,4 Z M10.6308594,4.07421875 C10.7376302,4.07421875 10.8333333,4.06380208 10.9179688,4.04296875 C11.0755208,4.00651042 11.2076823,3.93619792 11.3144531,3.83203125 C11.3782552,3.77213542 11.4358724,3.69498698 11.4873047,3.60058594 C11.538737,3.5061849 11.5690104,3.42057292 11.578125,3.34375 L11.578125,3.34375 L11.2324219,3.34375 C11.2063802,3.43619792 11.1621094,3.51757812 11.0996094,3.58789062 C10.9902344,3.70898438 10.84375,3.76953125 10.6601562,3.76953125 C10.4635417,3.76953125 10.3183594,3.70540365 10.2246094,3.57714844 C10.1308594,3.44889323 10.0807292,3.27864583 10.0742188,3.06640625 L10.0742188,3.06640625 L11.6074219,3.06640625 C11.6074219,2.85546875 11.5970052,2.70182292 11.5761719,2.60546875 C11.5527344,2.46484375 11.5058594,2.34179688 11.4355469,2.23632812 C11.3626302,2.12565104 11.2565104,2.03548177 11.1171875,1.96582031 C10.9778646,1.89615885 10.8339844,1.86132812 10.6855469,1.86132812 C10.391276,1.86132812 10.1529948,1.96614583 9.97070312,2.17578125 C9.78841146,2.38541667 9.69726562,2.65820312 9.69726562,2.99414062 C9.69726562,3.33528646 9.78776042,3.60058594 9.96875,3.79003906 C10.1497396,3.97949219 10.3704427,4.07421875 10.6308594,4.07421875 Z M11.2460938,2.78710938 L10.0839844,2.78710938 C10.0904948,2.60742188 10.1484375,2.4593099 10.2578125,2.34277344 C10.3671875,2.22623698 10.5026042,2.16796875 10.6640625,2.16796875 C10.8893229,2.16796875 11.0501302,2.25260417 11.1464844,2.421875 C11.1985677,2.51302083 11.2317708,2.63476562 11.2460938,2.78710938 L11.2460938,2.78710938 Z M12.390625,4 L12.390625,2.890625 C12.390625,2.62109375 12.444987,2.43489583 12.5537109,2.33203125 C12.6624349,2.22916667 12.7832031,2.17773438 12.9160156,2.17773438 C13.061849,2.17773438 13.1614583,2.2265625 13.2148438,2.32421875 C13.2486979,2.38932292 13.265625,2.49283854 13.265625,2.63476562 L13.265625,2.63476562 L13.265625,4 L13.6230469,4 L13.6230469,2.78320312 C13.6230469,2.56705729 13.6728516,2.41276042 13.7724609,2.3203125 C13.8720703,2.22786458 13.9908854,2.18164062 14.1289062,2.18164062 C14.2291667,2.18164062 14.3141276,2.20768229 14.3837891,2.25976562 C14.4534505,2.31184896 14.4882812,2.40755208 14.4882812,2.546875 L14.4882812,2.546875 L14.4882812,4 L14.8535156,4 L14.8535156,2.60742188 C14.8535156,2.42252604 14.8261719,2.27539062 14.7714844,2.16601562 C14.6699219,1.96289062 14.4785156,1.86132812 14.1972656,1.86132812 C14.0657552,1.86132812 13.9472656,1.88834635 13.8417969,1.94238281 C13.7363281,1.99641927 13.6445312,2.07942708 13.5664062,2.19140625 C13.5195312,2.10026042 13.4674479,2.03125 13.4101562,1.984375 C13.3085938,1.90234375 13.1744792,1.86132812 13.0078125,1.86132812 C12.8606771,1.86132812 12.7291667,1.90104167 12.6132812,1.98046875 C12.5455729,2.02734375 12.4700521,2.10221354 12.3867188,2.20507812 L12.3867188,2.20507812 L12.3867188,1.90820312 L12.0390625,1.90820312 L12.0390625,4 L12.390625,4 Z M16.1875,4.07421875 C16.2942708,4.07421875 16.389974,4.06380208 16.4746094,4.04296875 C16.6321615,4.00651042 16.7643229,3.93619792 16.8710938,3.83203125 C16.9348958,3.77213542 16.992513,3.69498698 17.0439453,3.60058594 C17.0953776,3.5061849 17.125651,3.42057292 17.1347656,3.34375 L17.1347656,3.34375 L16.7890625,3.34375 C16.7630208,3.43619792 16.71875,3.51757812 16.65625,3.58789062 C16.546875,3.70898438 16.4003906,3.76953125 16.2167969,3.76953125 C16.0201823,3.76953125 15.875,3.70540365 15.78125,3.57714844 C15.6875,3.44889323 15.6373698,3.27864583 15.6308594,3.06640625 L15.6308594,3.06640625 L17.1640625,3.06640625 C17.1640625,2.85546875 17.1536458,2.70182292 17.1328125,2.60546875 C17.109375,2.46484375 17.0625,2.34179688 16.9921875,2.23632812 C16.9192708,2.12565104 16.813151,2.03548177 16.6738281,1.96582031 C16.5345052,1.89615885 16.390625,1.86132812 16.2421875,1.86132812 C15.9479167,1.86132812 15.7096354,1.96614583 15.5273438,2.17578125 C15.3450521,2.38541667 15.2539062,2.65820312 15.2539062,2.99414062 C15.2539062,3.33528646 15.344401,3.60058594 15.5253906,3.79003906 C15.7063802,3.97949219 15.9270833,4.07421875 16.1875,4.07421875 Z M16.8027344,2.78710938 L15.640625,2.78710938 C15.6471354,2.60742188 15.7050781,2.4593099 15.8144531,2.34277344 C15.9238281,2.22623698 16.0592448,2.16796875 16.2207031,2.16796875 C16.4459635,2.16796875 16.6067708,2.25260417 16.703125,2.421875 C16.7552083,2.51302083 16.7884115,2.63476562 16.8027344,2.78710938 L16.8027344,2.78710938 Z M17.9472656,4 L17.9472656,2.90429688 C17.9472656,2.76757812 17.9560547,2.6624349 17.9736328,2.58886719 C17.9912109,2.51529948 18.0292969,2.44401042 18.0878906,2.375 C18.1608073,2.2890625 18.2454427,2.23177083 18.3417969,2.203125 C18.3951823,2.18619792 18.4635417,2.17773438 18.546875,2.17773438 C18.7109375,2.17773438 18.8242188,2.24283854 18.8867188,2.37304688 C18.9244792,2.45117188 18.9433594,2.55403646 18.9433594,2.68164062 L18.9433594,2.68164062 L18.9433594,4 L19.3007812,4 L19.3007812,2.65820312 C19.3007812,2.44726562 19.2721354,2.28515625 19.2148438,2.171875 C19.1106771,1.96484375 18.9101562,1.86132812 18.6132812,1.86132812 C18.4778646,1.86132812 18.3548177,1.88802083 18.2441406,1.94140625 C18.1334635,1.99479167 18.0286458,2.08268229 17.9296875,2.20507812 L17.9296875,2.20507812 L17.9296875,1.90820312 L17.5957031,1.90820312 L17.5957031,4 L17.9472656,4 Z M20.3125,4.03320312 C20.3632812,4.03320312 20.4104818,4.03059896 20.4541016,4.02539062 C20.4977214,4.02018229 20.5397135,4.01171875 20.5800781,4 L20.5800781,4 L20.5800781,3.72265625 C20.5540365,3.72526042 20.53125,3.72688802 20.5117188,3.72753906 C20.4921875,3.7281901 20.4739583,3.72851562 20.4570312,3.72851562 C20.3932292,3.72851562 20.3476562,3.72135417 20.3203125,3.70703125 C20.2708333,3.68229167 20.2460938,3.63346354 20.2460938,3.56054688 L20.2460938,3.56054688 L20.2460938,2.1953125 L20.5800781,2.1953125 L20.5800781,1.90820312 L20.2460938,1.90820312 L20.2460938,1.32421875 L19.890625,1.32421875 L19.890625,1.90820312 L19.6074219,1.90820312 L19.6074219,2.1953125 L19.890625,2.1953125 L19.890625,3.58007812 C19.890625,3.71419271 19.9199219,3.82324219 19.9785156,3.90722656 C20.0371094,3.99121094 20.1484375,4.03320312 20.3125,4.03320312 Z" id="movement" fill="#000000"></path>
                    <path d="M27.0742188,5.07421875 C27.1809896,5.07421875 27.2766927,5.06380208 27.3613281,5.04296875 C27.5188802,5.00651042 27.6510417,4.93619792 27.7578125,4.83203125 C27.8216146,4.77213542 27.8792318,4.69498698 27.9306641,4.60058594 C27.9820964,4.5061849 28.0123698,4.42057292 28.0214844,4.34375 L28.0214844,4.34375 L27.6757812,4.34375 C27.6497396,4.43619792 27.6054688,4.51757812 27.5429688,4.58789062 C27.4335938,4.70898438 27.2871094,4.76953125 27.1035156,4.76953125 C26.906901,4.76953125 26.7617188,4.70540365 26.6679688,4.57714844 C26.5742188,4.44889323 26.5240885,4.27864583 26.5175781,4.06640625 L26.5175781,4.06640625 L28.0507812,4.06640625 C28.0507812,3.85546875 28.0403646,3.70182292 28.0195312,3.60546875 C27.9960938,3.46484375 27.9492188,3.34179688 27.8789062,3.23632812 C27.8059896,3.12565104 27.6998698,3.03548177 27.5605469,2.96582031 C27.421224,2.89615885 27.2773438,2.86132812 27.1289062,2.86132812 C26.8346354,2.86132812 26.5963542,2.96614583 26.4140625,3.17578125 C26.2317708,3.38541667 26.140625,3.65820312 26.140625,3.99414062 C26.140625,4.33528646 26.2311198,4.60058594 26.4121094,4.79003906 C26.593099,4.97949219 26.8138021,5.07421875 27.0742188,5.07421875 Z M27.6894531,3.78710938 L26.5273438,3.78710938 C26.5338542,3.60742188 26.5917969,3.4593099 26.7011719,3.34277344 C26.8105469,3.22623698 26.9459635,3.16796875 27.1074219,3.16796875 C27.3326823,3.16796875 27.4934896,3.25260417 27.5898438,3.421875 C27.6419271,3.51302083 27.6751302,3.63476562 27.6894531,3.78710938 L27.6894531,3.78710938 Z M28.9746094,5.03320312 C29.0253906,5.03320312 29.0725911,5.03059896 29.1162109,5.02539062 C29.1598307,5.02018229 29.2018229,5.01171875 29.2421875,5 L29.2421875,5 L29.2421875,4.72265625 C29.2161458,4.72526042 29.1933594,4.72688802 29.1738281,4.72753906 C29.1542969,4.7281901 29.1360677,4.72851562 29.1191406,4.72851562 C29.0553385,4.72851562 29.0097656,4.72135417 28.9824219,4.70703125 C28.9329427,4.68229167 28.9082031,4.63346354 28.9082031,4.56054688 L28.9082031,4.56054688 L28.9082031,3.1953125 L29.2421875,3.1953125 L29.2421875,2.90820312 L28.9082031,2.90820312 L28.9082031,2.32421875 L28.5527344,2.32421875 L28.5527344,2.90820312 L28.2695312,2.90820312 L28.2695312,3.1953125 L28.5527344,3.1953125 L28.5527344,4.58007812 C28.5527344,4.71419271 28.5820312,4.82324219 28.640625,4.90722656 C28.6992188,4.99121094 28.8105469,5.03320312 28.9746094,5.03320312 Z M29.9453125,5 L29.9453125,3.890625 C29.9453125,3.61197917 30.0045573,3.42252604 30.1230469,3.32226562 C30.2415365,3.22200521 30.3736979,3.171875 30.5195312,3.171875 C30.6953125,3.171875 30.8151042,3.22916667 30.8789062,3.34375 C30.9179688,3.41536458 30.9375,3.52799479 30.9375,3.68164062 L30.9375,3.68164062 L30.9375,5 L31.2988281,5 L31.2988281,3.65820312 C31.2988281,3.45247396 31.2695312,3.29166667 31.2109375,3.17578125 C31.1028646,2.96354167 30.8971354,2.85742188 30.59375,2.85742188 C30.4244792,2.85742188 30.2832031,2.89453125 30.1699219,2.96875 C30.1035156,3.01171875 30.0286458,3.0859375 29.9453125,3.19140625 L29.9453125,3.19140625 L29.9453125,2.12109375 L29.59375,2.12109375 L29.59375,5 L29.9453125,5 Z M32.6347656,5.07421875 C32.7415365,5.07421875 32.8372396,5.06380208 32.921875,5.04296875 C33.0794271,5.00651042 33.2115885,4.93619792 33.3183594,4.83203125 C33.3821615,4.77213542 33.4397786,4.69498698 33.4912109,4.60058594 C33.5426432,4.5061849 33.5729167,4.42057292 33.5820312,4.34375 L33.5820312,4.34375 L33.2363281,4.34375 C33.2102865,4.43619792 33.1660156,4.51757812 33.1035156,4.58789062 C32.9941406,4.70898438 32.8476562,4.76953125 32.6640625,4.76953125 C32.4674479,4.76953125 32.3222656,4.70540365 32.2285156,4.57714844 C32.1347656,4.44889323 32.0846354,4.27864583 32.078125,4.06640625 L32.078125,4.06640625 L33.6113281,4.06640625 C33.6113281,3.85546875 33.6009115,3.70182292 33.5800781,3.60546875 C33.5566406,3.46484375 33.5097656,3.34179688 33.4394531,3.23632812 C33.3665365,3.12565104 33.2604167,3.03548177 33.1210938,2.96582031 C32.9817708,2.89615885 32.8378906,2.86132812 32.6894531,2.86132812 C32.3951823,2.86132812 32.156901,2.96614583 31.9746094,3.17578125 C31.7923177,3.38541667 31.7011719,3.65820312 31.7011719,3.99414062 C31.7011719,4.33528646 31.7916667,4.60058594 31.9726562,4.79003906 C32.1536458,4.97949219 32.374349,5.07421875 32.6347656,5.07421875 Z M33.25,3.78710938 L32.0878906,3.78710938 C32.094401,3.60742188 32.1523438,3.4593099 32.2617188,3.34277344 C32.3710938,3.22623698 32.5065104,3.16796875 32.6679688,3.16796875 C32.8932292,3.16796875 33.0540365,3.25260417 33.1503906,3.421875 C33.202474,3.51302083 33.2356771,3.63476562 33.25,3.78710938 L33.25,3.78710938 Z M34.4042969,5 L34.4042969,3.796875 C34.4042969,3.6484375 34.4518229,3.5172526 34.546875,3.40332031 C34.6419271,3.28938802 34.7779948,3.23242188 34.9550781,3.23242188 C34.9759115,3.23242188 34.9951172,3.23307292 35.0126953,3.234375 C35.0302734,3.23567708 35.0494792,3.23828125 35.0703125,3.2421875 L35.0703125,3.2421875 L35.0703125,2.87109375 C35.0325521,2.8671875 35.0058594,2.86458333 34.9902344,2.86328125 C34.9746094,2.86197917 34.9635417,2.86132812 34.9570312,2.86132812 C34.8177083,2.86132812 34.6946615,2.91178385 34.5878906,3.01269531 C34.4811198,3.11360677 34.4140625,3.19921875 34.3867188,3.26953125 L34.3867188,3.26953125 L34.3867188,2.90820312 L34.0527344,2.90820312 L34.0527344,5 L34.4042969,5 Z" id="ether" fill="#FFFFFF"></path>
                    <path d="M10.8203125,14.0703125 C10.9817708,14.0703125 11.1295573,14.0358073 11.2636719,13.9667969 C11.3977865,13.8977865 11.500651,13.8164062 11.5722656,13.7226562 C11.5839844,13.8059896 11.6041667,13.8704427 11.6328125,13.9160156 C11.6875,14.0019531 11.7753906,14.0449219 11.8964844,14.0449219 C11.9459635,14.0449219 11.985026,14.0429688 12.0136719,14.0390625 C12.0423177,14.0351562 12.0839844,14.0253906 12.1386719,14.0097656 L12.1386719,14.0097656 L12.1386719,13.75 C12.1165365,13.7539062 12.0957031,13.7568359 12.0761719,13.7587891 C12.0566406,13.7607422 12.0390625,13.7617188 12.0234375,13.7617188 C11.9752604,13.7617188 11.9436849,13.750651 11.9287109,13.7285156 C11.913737,13.7063802 11.90625,13.6770833 11.90625,13.640625 L11.90625,13.640625 L11.90625,12.4355469 C11.90625,12.2376302 11.8300781,12.0917969 11.6777344,11.9980469 C11.5240885,11.9042969 11.3242188,11.8574219 11.078125,11.8574219 C10.8658854,11.8574219 10.679362,11.9078776 10.5185547,12.0087891 C10.3577474,12.1097005 10.2740885,12.2890625 10.2675781,12.546875 L10.2675781,12.546875 L10.5957031,12.546875 C10.608724,12.4388021 10.6367188,12.3574219 10.6796875,12.3027344 C10.7565104,12.203776 10.8867188,12.1542969 11.0703125,12.1542969 C11.2291667,12.1542969 11.351237,12.1813151 11.4365234,12.2353516 C11.5218099,12.289388 11.5644531,12.3763021 11.5644531,12.4960938 C11.5644531,12.5546875 11.5566406,12.5996094 11.5410156,12.6308594 C11.5136719,12.688151 11.4596354,12.7220052 11.3789062,12.7324219 L11.3789062,12.7324219 L10.8183594,12.8027344 C10.6217448,12.827474 10.4628906,12.8932292 10.3417969,13 C10.2207031,13.1067708 10.1601562,13.2571615 10.1601562,13.4511719 C10.1601562,13.6282552 10.2216797,13.7757161 10.3447266,13.8935547 C10.4677734,14.0113932 10.6263021,14.0703125 10.8203125,14.0703125 Z M10.9023438,13.7714844 C10.8007812,13.7714844 10.7128906,13.7421875 10.6386719,13.6835938 C10.5644531,13.625 10.5273438,13.5449219 10.5273438,13.4433594 C10.5273438,13.3092448 10.5813802,13.2115885 10.6894531,13.1503906 C10.7532552,13.1139323 10.8489583,13.0872396 10.9765625,13.0703125 L10.9765625,13.0703125 L11.1894531,13.0429688 C11.2545573,13.0351562 11.3209635,13.0221354 11.3886719,13.0039062 C11.4563802,12.9856771 11.5117188,12.9628906 11.5546875,12.9355469 L11.5546875,12.9355469 L11.5546875,13.21875 C11.5546875,13.4348958 11.4570312,13.5904948 11.2617188,13.6855469 C11.1458333,13.7428385 11.0260417,13.7714844 10.9023438,13.7714844 Z M12.8398438,11.5292969 L12.8398438,11.1308594 L12.4824219,11.1308594 L12.4824219,11.5292969 L12.8398438,11.5292969 Z M12.8398438,14 L12.8398438,11.9179688 L12.4824219,11.9179688 L12.4824219,14 L12.8398438,14 Z M13.7324219,14 L13.7324219,12.796875 C13.7324219,12.6484375 13.7799479,12.5172526 13.875,12.4033203 C13.9700521,12.289388 14.1061198,12.2324219 14.2832031,12.2324219 C14.3040365,12.2324219 14.3232422,12.2330729 14.3408203,12.234375 C14.3583984,12.2356771 14.3776042,12.2382812 14.3984375,12.2421875 L14.3984375,12.2421875 L14.3984375,11.8710938 C14.3606771,11.8671875 14.3339844,11.8645833 14.3183594,11.8632812 C14.3027344,11.8619792 14.2916667,11.8613281 14.2851562,11.8613281 C14.1458333,11.8613281 14.0227865,11.9117839 13.9160156,12.0126953 C13.8092448,12.1136068 13.7421875,12.1992188 13.7148438,12.2695312 L13.7148438,12.2695312 L13.7148438,11.9082031 L13.3808594,11.9082031 L13.3808594,14 L13.7324219,14 Z" id="air" fill="#000000"></path>
                    <path d="M23.1679688,16 L23.9570312,13.9082031 L23.5722656,13.9082031 L22.9882812,15.6113281 L22.4296875,13.9082031 L22.0214844,13.9082031 L22.7929688,16 L23.1679688,16 Z M24.8203125,16.0703125 C24.9817708,16.0703125 25.1295573,16.0358073 25.2636719,15.9667969 C25.3977865,15.8977865 25.500651,15.8164062 25.5722656,15.7226562 C25.5839844,15.8059896 25.6041667,15.8704427 25.6328125,15.9160156 C25.6875,16.0019531 25.7753906,16.0449219 25.8964844,16.0449219 C25.9459635,16.0449219 25.985026,16.0429688 26.0136719,16.0390625 C26.0423177,16.0351562 26.0839844,16.0253906 26.1386719,16.0097656 L26.1386719,16.0097656 L26.1386719,15.75 C26.1165365,15.7539062 26.0957031,15.7568359 26.0761719,15.7587891 C26.0566406,15.7607422 26.0390625,15.7617188 26.0234375,15.7617188 C25.9752604,15.7617188 25.9436849,15.750651 25.9287109,15.7285156 C25.913737,15.7063802 25.90625,15.6770833 25.90625,15.640625 L25.90625,15.640625 L25.90625,14.4355469 C25.90625,14.2376302 25.8300781,14.0917969 25.6777344,13.9980469 C25.5240885,13.9042969 25.3242188,13.8574219 25.078125,13.8574219 C24.8658854,13.8574219 24.679362,13.9078776 24.5185547,14.0087891 C24.3577474,14.1097005 24.2740885,14.2890625 24.2675781,14.546875 L24.2675781,14.546875 L24.5957031,14.546875 C24.608724,14.4388021 24.6367188,14.3574219 24.6796875,14.3027344 C24.7565104,14.203776 24.8867188,14.1542969 25.0703125,14.1542969 C25.2291667,14.1542969 25.351237,14.1813151 25.4365234,14.2353516 C25.5218099,14.289388 25.5644531,14.3763021 25.5644531,14.4960938 C25.5644531,14.5546875 25.5566406,14.5996094 25.5410156,14.6308594 C25.5136719,14.688151 25.4596354,14.7220052 25.3789062,14.7324219 L25.3789062,14.7324219 L24.8183594,14.8027344 C24.6217448,14.827474 24.4628906,14.8932292 24.3417969,15 C24.2207031,15.1067708 24.1601562,15.2571615 24.1601562,15.4511719 C24.1601562,15.6282552 24.2216797,15.7757161 24.3447266,15.8935547 C24.4677734,16.0113932 24.6263021,16.0703125 24.8203125,16.0703125 Z M24.9023438,15.7714844 C24.8007812,15.7714844 24.7128906,15.7421875 24.6386719,15.6835938 C24.5644531,15.625 24.5273438,15.5449219 24.5273438,15.4433594 C24.5273438,15.3092448 24.5813802,15.2115885 24.6894531,15.1503906 C24.7532552,15.1139323 24.8489583,15.0872396 24.9765625,15.0703125 L24.9765625,15.0703125 L25.1894531,15.0429688 C25.2545573,15.0351562 25.3209635,15.0221354 25.3886719,15.0039062 C25.4563802,14.9856771 25.5117188,14.9628906 25.5546875,14.9355469 L25.5546875,14.9355469 L25.5546875,15.21875 C25.5546875,15.4348958 25.4570312,15.5904948 25.2617188,15.6855469 C25.1458333,15.7428385 25.0260417,15.7714844 24.9023438,15.7714844 Z M26.9746094,16.0332031 C27.0253906,16.0332031 27.0725911,16.030599 27.1162109,16.0253906 C27.1598307,16.0201823 27.2018229,16.0117188 27.2421875,16 L27.2421875,16 L27.2421875,15.7226562 C27.2161458,15.7252604 27.1933594,15.726888 27.1738281,15.7275391 C27.1542969,15.7281901 27.1360677,15.7285156 27.1191406,15.7285156 C27.0553385,15.7285156 27.0097656,15.7213542 26.9824219,15.7070312 C26.9329427,15.6822917 26.9082031,15.6334635 26.9082031,15.5605469 L26.9082031,15.5605469 L26.9082031,14.1953125 L27.2421875,14.1953125 L27.2421875,13.9082031 L26.9082031,13.9082031 L26.9082031,13.3242188 L26.5527344,13.3242188 L26.5527344,13.9082031 L26.2695312,13.9082031 L26.2695312,14.1953125 L26.5527344,14.1953125 L26.5527344,15.5800781 C26.5527344,15.7141927 26.5820312,15.8232422 26.640625,15.9072266 C26.6992188,15.9912109 26.8105469,16.0332031 26.9746094,16.0332031 Z M27.9453125,16 L27.9453125,14.890625 C27.9453125,14.6119792 28.0045573,14.422526 28.1230469,14.3222656 C28.2415365,14.2220052 28.3736979,14.171875 28.5195312,14.171875 C28.6953125,14.171875 28.8151042,14.2291667 28.8789062,14.34375 C28.9179688,14.4153646 28.9375,14.5279948 28.9375,14.6816406 L28.9375,14.6816406 L28.9375,16 L29.2988281,16 L29.2988281,14.6582031 C29.2988281,14.452474 29.2695312,14.2916667 29.2109375,14.1757812 C29.1028646,13.9635417 28.8971354,13.8574219 28.59375,13.8574219 C28.4244792,13.8574219 28.2832031,13.8945312 28.1699219,13.96875 C28.1035156,14.0117188 28.0286458,14.0859375 27.9453125,14.1914062 L27.9453125,14.1914062 L27.9453125,13.1210938 L27.59375,13.1210938 L27.59375,16 L27.9453125,16 Z M30.3808594,16.0703125 C30.5423177,16.0703125 30.6901042,16.0358073 30.8242188,15.9667969 C30.9583333,15.8977865 31.0611979,15.8164062 31.1328125,15.7226562 C31.1445312,15.8059896 31.1647135,15.8704427 31.1933594,15.9160156 C31.2480469,16.0019531 31.3359375,16.0449219 31.4570312,16.0449219 C31.5065104,16.0449219 31.5455729,16.0429688 31.5742188,16.0390625 C31.6028646,16.0351562 31.6445312,16.0253906 31.6992188,16.0097656 L31.6992188,16.0097656 L31.6992188,15.75 C31.6770833,15.7539062 31.65625,15.7568359 31.6367188,15.7587891 C31.6171875,15.7607422 31.5996094,15.7617188 31.5839844,15.7617188 C31.5358073,15.7617188 31.5042318,15.750651 31.4892578,15.7285156 C31.4742839,15.7063802 31.4667969,15.6770833 31.4667969,15.640625 L31.4667969,15.640625 L31.4667969,14.4355469 C31.4667969,14.2376302 31.390625,14.0917969 31.2382812,13.9980469 C31.0846354,13.9042969 30.8847656,13.8574219 30.6386719,13.8574219 C30.4264323,13.8574219 30.2399089,13.9078776 30.0791016,14.0087891 C29.9182943,14.1097005 29.8346354,14.2890625 29.828125,14.546875 L29.828125,14.546875 L30.15625,14.546875 C30.1692708,14.4388021 30.1972656,14.3574219 30.2402344,14.3027344 C30.3170573,14.203776 30.4472656,14.1542969 30.6308594,14.1542969 C30.7897135,14.1542969 30.9117839,14.1813151 30.9970703,14.2353516 C31.0823568,14.289388 31.125,14.3763021 31.125,14.4960938 C31.125,14.5546875 31.1171875,14.5996094 31.1015625,14.6308594 C31.0742188,14.688151 31.0201823,14.7220052 30.9394531,14.7324219 L30.9394531,14.7324219 L30.3789062,14.8027344 C30.1822917,14.827474 30.0234375,14.8932292 29.9023438,15 C29.78125,15.1067708 29.7207031,15.2571615 29.7207031,15.4511719 C29.7207031,15.6282552 29.7822266,15.7757161 29.9052734,15.8935547 C30.0283203,16.0113932 30.186849,16.0703125 30.3808594,16.0703125 Z M30.4628906,15.7714844 C30.3613281,15.7714844 30.2734375,15.7421875 30.1992188,15.6835938 C30.125,15.625 30.0878906,15.5449219 30.0878906,15.4433594 C30.0878906,15.3092448 30.1419271,15.2115885 30.25,15.1503906 C30.3138021,15.1139323 30.4095052,15.0872396 30.5371094,15.0703125 L30.5371094,15.0703125 L30.75,15.0429688 C30.8151042,15.0351562 30.8815104,15.0221354 30.9492188,15.0039062 C31.0169271,14.9856771 31.0722656,14.9628906 31.1152344,14.9355469 L31.1152344,14.9355469 L31.1152344,15.21875 C31.1152344,15.4348958 31.0175781,15.5904948 30.8222656,15.6855469 C30.7063802,15.7428385 30.5865885,15.7714844 30.4628906,15.7714844 Z" id="vatha" fill="#000000"></path>
                    <path d="M45.0742188,16.0742188 C45.1809896,16.0742188 45.2766927,16.0638021 45.3613281,16.0429688 C45.5188802,16.0065104 45.6510417,15.9361979 45.7578125,15.8320312 C45.8216146,15.7721354 45.8792318,15.694987 45.9306641,15.6005859 C45.9820964,15.5061849 46.0123698,15.4205729 46.0214844,15.34375 L46.0214844,15.34375 L45.6757812,15.34375 C45.6497396,15.4361979 45.6054688,15.5175781 45.5429688,15.5878906 C45.4335938,15.7089844 45.2871094,15.7695312 45.1035156,15.7695312 C44.906901,15.7695312 44.7617188,15.7054036 44.6679688,15.5771484 C44.5742188,15.4488932 44.5240885,15.2786458 44.5175781,15.0664062 L44.5175781,15.0664062 L46.0507812,15.0664062 C46.0507812,14.8554688 46.0403646,14.7018229 46.0195312,14.6054688 C45.9960938,14.4648438 45.9492188,14.3417969 45.8789062,14.2363281 C45.8059896,14.125651 45.6998698,14.0354818 45.5605469,13.9658203 C45.421224,13.8961589 45.2773438,13.8613281 45.1289062,13.8613281 C44.8346354,13.8613281 44.5963542,13.9661458 44.4140625,14.1757812 C44.2317708,14.3854167 44.140625,14.6582031 44.140625,14.9941406 C44.140625,15.3352865 44.2311198,15.6005859 44.4121094,15.7900391 C44.593099,15.9794922 44.8138021,16.0742188 45.0742188,16.0742188 Z M45.6894531,14.7871094 L44.5273438,14.7871094 C44.5338542,14.6074219 44.5917969,14.4593099 44.7011719,14.3427734 C44.8105469,14.226237 44.9459635,14.1679688 45.1074219,14.1679688 C45.3326823,14.1679688 45.4934896,14.2526042 45.5898438,14.421875 C45.6419271,14.5130208 45.6751302,14.6347656 45.6894531,14.7871094 L45.6894531,14.7871094 Z M47.0449219,16.0703125 C47.2063802,16.0703125 47.3541667,16.0358073 47.4882812,15.9667969 C47.6223958,15.8977865 47.7252604,15.8164062 47.796875,15.7226562 C47.8085938,15.8059896 47.828776,15.8704427 47.8574219,15.9160156 C47.9121094,16.0019531 48,16.0449219 48.1210938,16.0449219 C48.1705729,16.0449219 48.2096354,16.0429688 48.2382812,16.0390625 C48.2669271,16.0351562 48.3085938,16.0253906 48.3632812,16.0097656 L48.3632812,16.0097656 L48.3632812,15.75 C48.3411458,15.7539062 48.3203125,15.7568359 48.3007812,15.7587891 C48.28125,15.7607422 48.2636719,15.7617188 48.2480469,15.7617188 C48.1998698,15.7617188 48.1682943,15.750651 48.1533203,15.7285156 C48.1383464,15.7063802 48.1308594,15.6770833 48.1308594,15.640625 L48.1308594,15.640625 L48.1308594,14.4355469 C48.1308594,14.2376302 48.0546875,14.0917969 47.9023438,13.9980469 C47.7486979,13.9042969 47.5488281,13.8574219 47.3027344,13.8574219 C47.0904948,13.8574219 46.9039714,13.9078776 46.7431641,14.0087891 C46.5823568,14.1097005 46.4986979,14.2890625 46.4921875,14.546875 L46.4921875,14.546875 L46.8203125,14.546875 C46.8333333,14.4388021 46.8613281,14.3574219 46.9042969,14.3027344 C46.9811198,14.203776 47.1113281,14.1542969 47.2949219,14.1542969 C47.453776,14.1542969 47.5758464,14.1813151 47.6611328,14.2353516 C47.7464193,14.289388 47.7890625,14.3763021 47.7890625,14.4960938 C47.7890625,14.5546875 47.78125,14.5996094 47.765625,14.6308594 C47.7382812,14.688151 47.6842448,14.7220052 47.6035156,14.7324219 L47.6035156,14.7324219 L47.0429688,14.8027344 C46.8463542,14.827474 46.6875,14.8932292 46.5664062,15 C46.4453125,15.1067708 46.3847656,15.2571615 46.3847656,15.4511719 C46.3847656,15.6282552 46.4462891,15.7757161 46.5693359,15.8935547 C46.6923828,16.0113932 46.8509115,16.0703125 47.0449219,16.0703125 Z M47.1269531,15.7714844 C47.0253906,15.7714844 46.9375,15.7421875 46.8632812,15.6835938 C46.7890625,15.625 46.7519531,15.5449219 46.7519531,15.4433594 C46.7519531,15.3092448 46.8059896,15.2115885 46.9140625,15.1503906 C46.9778646,15.1139323 47.0735677,15.0872396 47.2011719,15.0703125 L47.2011719,15.0703125 L47.4140625,15.0429688 C47.4791667,15.0351562 47.5455729,15.0221354 47.6132812,15.0039062 C47.6809896,14.9856771 47.7363281,14.9628906 47.7792969,14.9355469 L47.7792969,14.9355469 L47.7792969,15.21875 C47.7792969,15.4348958 47.6816406,15.5904948 47.4863281,15.6855469 C47.3704427,15.7428385 47.250651,15.7714844 47.1269531,15.7714844 Z M49.0683594,16 L49.0683594,14.796875 C49.0683594,14.6484375 49.1158854,14.5172526 49.2109375,14.4033203 C49.3059896,14.289388 49.4420573,14.2324219 49.6191406,14.2324219 C49.639974,14.2324219 49.6591797,14.2330729 49.6767578,14.234375 C49.6943359,14.2356771 49.7135417,14.2382812 49.734375,14.2421875 L49.734375,14.2421875 L49.734375,13.8710938 C49.6966146,13.8671875 49.6699219,13.8645833 49.6542969,13.8632812 C49.6386719,13.8619792 49.6276042,13.8613281 49.6210938,13.8613281 C49.4817708,13.8613281 49.358724,13.9117839 49.2519531,14.0126953 C49.1451823,14.1136068 49.078125,14.1992188 49.0507812,14.2695312 L49.0507812,14.2695312 L49.0507812,13.9082031 L48.7167969,13.9082031 L48.7167969,16 L49.0683594,16 Z M50.53125,16.0332031 C50.5820312,16.0332031 50.6292318,16.030599 50.6728516,16.0253906 C50.7164714,16.0201823 50.7584635,16.0117188 50.7988281,16 L50.7988281,16 L50.7988281,15.7226562 C50.7727865,15.7252604 50.75,15.726888 50.7304688,15.7275391 C50.7109375,15.7281901 50.6927083,15.7285156 50.6757812,15.7285156 C50.6119792,15.7285156 50.5664062,15.7213542 50.5390625,15.7070312 C50.4895833,15.6822917 50.4648438,15.6334635 50.4648438,15.5605469 L50.4648438,15.5605469 L50.4648438,14.1953125 L50.7988281,14.1953125 L50.7988281,13.9082031 L50.4648438,13.9082031 L50.4648438,13.3242188 L50.109375,13.3242188 L50.109375,13.9082031 L49.8261719,13.9082031 L49.8261719,14.1953125 L50.109375,14.1953125 L50.109375,15.5800781 C50.109375,15.7141927 50.1386719,15.8232422 50.1972656,15.9072266 C50.2558594,15.9912109 50.3671875,16.0332031 50.53125,16.0332031 Z M51.5019531,16 L51.5019531,14.890625 C51.5019531,14.6119792 51.5611979,14.422526 51.6796875,14.3222656 C51.7981771,14.2220052 51.9303385,14.171875 52.0761719,14.171875 C52.2519531,14.171875 52.3717448,14.2291667 52.4355469,14.34375 C52.4746094,14.4153646 52.4941406,14.5279948 52.4941406,14.6816406 L52.4941406,14.6816406 L52.4941406,16 L52.8554688,16 L52.8554688,14.6582031 C52.8554688,14.452474 52.8261719,14.2916667 52.7675781,14.1757812 C52.6595052,13.9635417 52.453776,13.8574219 52.1503906,13.8574219 C51.9811198,13.8574219 51.8398438,13.8945312 51.7265625,13.96875 C51.6601562,14.0117188 51.5852865,14.0859375 51.5019531,14.1914062 L51.5019531,14.1914062 L51.5019531,13.1210938 L51.1503906,13.1210938 L51.1503906,16 L51.5019531,16 Z" id="earth" fill="#000000"></path>
                    <path d="M48.0136719,27.0605469 C48.2571615,27.0605469 48.4570312,26.9964193 48.6132812,26.8681641 C48.7695312,26.7399089 48.8671875,26.5371094 48.90625,26.2597656 L48.90625,26.2597656 L48.5644531,26.2597656 C48.531901,26.4147135 48.4729818,26.5367839 48.3876953,26.6259766 C48.3024089,26.7151693 48.186849,26.7597656 48.0410156,26.7597656 C47.8509115,26.7597656 47.7115885,26.688151 47.6230469,26.5449219 C47.5345052,26.4016927 47.4902344,26.2252604 47.4902344,26.015625 C47.4902344,25.8072917 47.5214844,25.6321615 47.5839844,25.4902344 C47.6803385,25.2714844 47.8404948,25.1621094 48.0644531,25.1621094 C48.2285156,25.1621094 48.3476562,25.2047526 48.421875,25.2900391 C48.4960938,25.3753255 48.5436198,25.4824219 48.5644531,25.6113281 L48.5644531,25.6113281 L48.90625,25.6113281 C48.8763021,25.3313802 48.7874349,25.1341146 48.6396484,25.0195312 C48.491862,24.9049479 48.3001302,24.8476562 48.0644531,24.8476562 C47.7884115,24.8476562 47.5611979,24.9498698 47.3828125,25.1542969 C47.2044271,25.358724 47.1152344,25.6445312 47.1152344,26.0117188 C47.1152344,26.3111979 47.1966146,26.5608724 47.359375,26.7607422 C47.5221354,26.960612 47.7402344,27.0605469 48.0136719,27.0605469 Z M50.0546875,27.0761719 C50.3997396,27.0761719 50.6542969,26.9661458 50.8183594,26.7460938 C50.9824219,26.5260417 51.0644531,26.2473958 51.0644531,25.9101562 C51.0644531,25.5611979 50.9713542,25.296875 50.7851562,25.1171875 C50.5989583,24.9375 50.3710938,24.8476562 50.1015625,24.8476562 C49.8007812,24.8476562 49.5611979,24.9518229 49.3828125,25.1601562 C49.2044271,25.3684896 49.1152344,25.6484375 49.1152344,26 C49.1152344,26.328125 49.1998698,26.5895182 49.3691406,26.7841797 C49.5384115,26.9788411 49.7669271,27.0761719 50.0546875,27.0761719 Z M50.0878906,26.7734375 C49.875651,26.7734375 49.7207031,26.6992188 49.6230469,26.5507812 C49.5253906,26.4023438 49.4765625,26.2167969 49.4765625,25.9941406 C49.4765625,25.7623698 49.5253906,25.5644531 49.6230469,25.4003906 C49.7207031,25.2363281 49.8769531,25.1542969 50.0917969,25.1542969 C50.3339844,25.1542969 50.5045573,25.250651 50.6035156,25.4433594 C50.6660156,25.5657552 50.6972656,25.7246094 50.6972656,25.9199219 C50.6972656,26.1360677 50.6539714,26.3323568 50.5673828,26.5087891 C50.4807943,26.6852214 50.3209635,26.7734375 50.0878906,26.7734375 Z M51.8339844,27 L51.8339844,25.890625 C51.8339844,25.6119792 51.8932292,25.422526 52.0117188,25.3222656 C52.1302083,25.2220052 52.2623698,25.171875 52.4082031,25.171875 C52.5839844,25.171875 52.703776,25.2291667 52.7675781,25.34375 C52.8066406,25.4153646 52.8261719,25.5279948 52.8261719,25.6816406 L52.8261719,25.6816406 L52.8261719,27 L53.1875,27 L53.1875,25.6582031 C53.1875,25.452474 53.1582031,25.2916667 53.0996094,25.1757812 C52.9915365,24.9635417 52.7858073,24.8574219 52.4824219,24.8574219 C52.313151,24.8574219 52.171875,24.8945312 52.0585938,24.96875 C51.9921875,25.0117188 51.9173177,25.0859375 51.8339844,25.1914062 L51.8339844,25.1914062 L51.8339844,24.1210938 L51.4824219,24.1210938 L51.4824219,27 L51.8339844,27 Z M54.5234375,27.0742188 C54.6302083,27.0742188 54.7259115,27.0638021 54.8105469,27.0429688 C54.968099,27.0065104 55.1002604,26.9361979 55.2070312,26.8320312 C55.2708333,26.7721354 55.3284505,26.694987 55.3798828,26.6005859 C55.4313151,26.5061849 55.4615885,26.4205729 55.4707031,26.34375 L55.4707031,26.34375 L55.125,26.34375 C55.0989583,26.4361979 55.0546875,26.5175781 54.9921875,26.5878906 C54.8828125,26.7089844 54.7363281,26.7695312 54.5527344,26.7695312 C54.3561198,26.7695312 54.2109375,26.7054036 54.1171875,26.5771484 C54.0234375,26.4488932 53.9733073,26.2786458 53.9667969,26.0664062 L53.9667969,26.0664062 L55.5,26.0664062 C55.5,25.8554688 55.4895833,25.7018229 55.46875,25.6054688 C55.4453125,25.4648438 55.3984375,25.3417969 55.328125,25.2363281 C55.2552083,25.125651 55.1490885,25.0354818 55.0097656,24.9658203 C54.8704427,24.8961589 54.7265625,24.8613281 54.578125,24.8613281 C54.2838542,24.8613281 54.0455729,24.9661458 53.8632812,25.1757812 C53.6809896,25.3854167 53.5898438,25.6582031 53.5898438,25.9941406 C53.5898438,26.3352865 53.6803385,26.6005859 53.8613281,26.7900391 C54.0423177,26.9794922 54.2630208,27.0742188 54.5234375,27.0742188 Z M55.1386719,25.7871094 L53.9765625,25.7871094 C53.9830729,25.6074219 54.0410156,25.4593099 54.1503906,25.3427734 C54.2597656,25.226237 54.3951823,25.1679688 54.5566406,25.1679688 C54.781901,25.1679688 54.9427083,25.2526042 55.0390625,25.421875 C55.0911458,25.5130208 55.124349,25.6347656 55.1386719,25.7871094 L55.1386719,25.7871094 Z M56.671875,27.0800781 C56.9609375,27.0800781 57.1761068,27.0123698 57.3173828,26.8769531 C57.4586589,26.7415365 57.5292969,26.5807292 57.5292969,26.3945312 C57.5292969,26.2018229 57.4609375,26.0605469 57.3242188,25.9707031 C57.2382812,25.9134115 57.0690104,25.8541667 56.8164062,25.7929688 L56.8164062,25.7929688 L56.5839844,25.7363281 C56.4824219,25.7115885 56.405599,25.6829427 56.3535156,25.6503906 C56.2636719,25.5957031 56.21875,25.5227865 56.21875,25.4316406 C56.21875,25.3483073 56.2529297,25.28125 56.3212891,25.2304688 C56.3896484,25.1796875 56.4902344,25.1542969 56.6230469,25.1542969 C56.8222656,25.1542969 56.9622396,25.2005208 57.0429688,25.2929688 C57.0924479,25.3580729 57.1204427,25.4303385 57.1269531,25.5097656 L57.1269531,25.5097656 L57.4589844,25.5097656 C57.4615885,25.374349 57.4192708,25.2480469 57.3320312,25.1308594 C57.1927083,24.9459635 56.9654948,24.8535156 56.6503906,24.8535156 C56.4095052,24.8535156 56.2177734,24.9147135 56.0751953,25.0371094 C55.9326172,25.1595052 55.8613281,25.3196615 55.8613281,25.5175781 C55.8613281,25.6855469 55.936849,25.8170573 56.0878906,25.9121094 C56.172526,25.9667969 56.3040365,26.016276 56.4824219,26.0605469 L56.4824219,26.0605469 L56.7617188,26.1308594 C56.9114583,26.1686198 57.0117188,26.2018229 57.0625,26.2304688 C57.1419271,26.2773438 57.1816406,26.3457031 57.1816406,26.4355469 C57.1816406,26.5540365 57.1321615,26.6416016 57.0332031,26.6982422 C56.9342448,26.7548828 56.8196615,26.7832031 56.6894531,26.7832031 C56.4707031,26.7832031 56.3170573,26.7265625 56.2285156,26.6132812 C56.1803385,26.5507812 56.1510417,26.4609375 56.140625,26.34375 L56.140625,26.34375 L55.8027344,26.34375 C55.811849,26.5520833 55.8811849,26.726888 56.0107422,26.8681641 C56.1402995,27.0094401 56.3606771,27.0800781 56.671875,27.0800781 Z M58.2890625,24.5292969 L58.2890625,24.1308594 L57.9316406,24.1308594 L57.9316406,24.5292969 L58.2890625,24.5292969 Z M58.2890625,27 L58.2890625,24.9179688 L57.9316406,24.9179688 L57.9316406,27 L58.2890625,27 Z M59.6171875,27.0761719 C59.9622396,27.0761719 60.2167969,26.9661458 60.3808594,26.7460938 C60.5449219,26.5260417 60.6269531,26.2473958 60.6269531,25.9101562 C60.6269531,25.5611979 60.5338542,25.296875 60.3476562,25.1171875 C60.1614583,24.9375 59.9335938,24.8476562 59.6640625,24.8476562 C59.3632812,24.8476562 59.1236979,24.9518229 58.9453125,25.1601562 C58.7669271,25.3684896 58.6777344,25.6484375 58.6777344,26 C58.6777344,26.328125 58.7623698,26.5895182 58.9316406,26.7841797 C59.1009115,26.9788411 59.3294271,27.0761719 59.6171875,27.0761719 Z M59.6503906,26.7734375 C59.438151,26.7734375 59.2832031,26.6992188 59.1855469,26.5507812 C59.0878906,26.4023438 59.0390625,26.2167969 59.0390625,25.9941406 C59.0390625,25.7623698 59.0878906,25.5644531 59.1855469,25.4003906 C59.2832031,25.2363281 59.4394531,25.1542969 59.6542969,25.1542969 C59.8964844,25.1542969 60.0670573,25.250651 60.1660156,25.4433594 C60.2285156,25.5657552 60.2597656,25.7246094 60.2597656,25.9199219 C60.2597656,26.1360677 60.2164714,26.3323568 60.1298828,26.5087891 C60.0432943,26.6852214 59.8834635,26.7734375 59.6503906,26.7734375 Z M61.3964844,27 L61.3964844,25.9042969 C61.3964844,25.7675781 61.4052734,25.6624349 61.4228516,25.5888672 C61.4404297,25.5152995 61.4785156,25.4440104 61.5371094,25.375 C61.610026,25.2890625 61.6946615,25.2317708 61.7910156,25.203125 C61.844401,25.1861979 61.9127604,25.1777344 61.9960938,25.1777344 C62.1601562,25.1777344 62.2734375,25.2428385 62.3359375,25.3730469 C62.3736979,25.4511719 62.3925781,25.5540365 62.3925781,25.6816406 L62.3925781,25.6816406 L62.3925781,27 L62.75,27 L62.75,25.6582031 C62.75,25.4472656 62.7213542,25.2851562 62.6640625,25.171875 C62.5598958,24.9648438 62.359375,24.8613281 62.0625,24.8613281 C61.9270833,24.8613281 61.8040365,24.8880208 61.6933594,24.9414062 C61.5826823,24.9947917 61.4778646,25.0826823 61.3789062,25.2050781 L61.3789062,25.2050781 L61.3789062,24.9082031 L61.0449219,24.9082031 L61.0449219,27 L61.3964844,27 Z" id="cohesion" fill="#000000"></path>
                    <path d="M36.0039062,35 L36.4160156,33.3808594 L36.8417969,35 L37.2070312,35 L37.8144531,32.9082031 L37.4628906,32.9082031 L37.0351562,34.546875 L36.625,32.9082031 L36.2304688,32.9082031 L35.8222656,34.5566406 L35.4199219,32.9082031 L35.0351562,32.9082031 L35.6386719,35 L36.0039062,35 Z M38.7089844,35.0703125 C38.8704427,35.0703125 39.0182292,35.0358073 39.1523438,34.9667969 C39.2864583,34.8977865 39.3893229,34.8164062 39.4609375,34.7226562 C39.4726562,34.8059896 39.4928385,34.8704427 39.5214844,34.9160156 C39.5761719,35.0019531 39.6640625,35.0449219 39.7851562,35.0449219 C39.8346354,35.0449219 39.8736979,35.0429688 39.9023438,35.0390625 C39.9309896,35.0351562 39.9726562,35.0253906 40.0273438,35.0097656 L40.0273438,35.0097656 L40.0273438,34.75 C40.0052083,34.7539062 39.984375,34.7568359 39.9648438,34.7587891 C39.9453125,34.7607422 39.9277344,34.7617188 39.9121094,34.7617188 C39.8639323,34.7617188 39.8323568,34.750651 39.8173828,34.7285156 C39.8024089,34.7063802 39.7949219,34.6770833 39.7949219,34.640625 L39.7949219,34.640625 L39.7949219,33.4355469 C39.7949219,33.2376302 39.71875,33.0917969 39.5664062,32.9980469 C39.4127604,32.9042969 39.2128906,32.8574219 38.9667969,32.8574219 C38.7545573,32.8574219 38.5680339,32.9078776 38.4072266,33.0087891 C38.2464193,33.1097005 38.1627604,33.2890625 38.15625,33.546875 L38.15625,33.546875 L38.484375,33.546875 C38.4973958,33.4388021 38.5253906,33.3574219 38.5683594,33.3027344 C38.6451823,33.203776 38.7753906,33.1542969 38.9589844,33.1542969 C39.1178385,33.1542969 39.2399089,33.1813151 39.3251953,33.2353516 C39.4104818,33.289388 39.453125,33.3763021 39.453125,33.4960938 C39.453125,33.5546875 39.4453125,33.5996094 39.4296875,33.6308594 C39.4023438,33.688151 39.3483073,33.7220052 39.2675781,33.7324219 L39.2675781,33.7324219 L38.7070312,33.8027344 C38.5104167,33.827474 38.3515625,33.8932292 38.2304688,34 C38.109375,34.1067708 38.0488281,34.2571615 38.0488281,34.4511719 C38.0488281,34.6282552 38.1103516,34.7757161 38.2333984,34.8935547 C38.3564453,35.0113932 38.514974,35.0703125 38.7089844,35.0703125 Z M38.7910156,34.7714844 C38.6894531,34.7714844 38.6015625,34.7421875 38.5273438,34.6835938 C38.453125,34.625 38.4160156,34.5449219 38.4160156,34.4433594 C38.4160156,34.3092448 38.4700521,34.2115885 38.578125,34.1503906 C38.6419271,34.1139323 38.7376302,34.0872396 38.8652344,34.0703125 L38.8652344,34.0703125 L39.078125,34.0429688 C39.1432292,34.0351562 39.2096354,34.0221354 39.2773438,34.0039062 C39.3450521,33.9856771 39.4003906,33.9628906 39.4433594,33.9355469 L39.4433594,33.9355469 L39.4433594,34.21875 C39.4433594,34.4348958 39.3457031,34.5904948 39.1503906,34.6855469 C39.0345052,34.7428385 38.9147135,34.7714844 38.7910156,34.7714844 Z M40.8632812,35.0332031 C40.9140625,35.0332031 40.961263,35.030599 41.0048828,35.0253906 C41.0485026,35.0201823 41.0904948,35.0117188 41.1308594,35 L41.1308594,35 L41.1308594,34.7226562 C41.1048177,34.7252604 41.0820312,34.726888 41.0625,34.7275391 C41.0429688,34.7281901 41.0247396,34.7285156 41.0078125,34.7285156 C40.9440104,34.7285156 40.8984375,34.7213542 40.8710938,34.7070312 C40.8216146,34.6822917 40.796875,34.6334635 40.796875,34.5605469 L40.796875,34.5605469 L40.796875,33.1953125 L41.1308594,33.1953125 L41.1308594,32.9082031 L40.796875,32.9082031 L40.796875,32.3242188 L40.4414062,32.3242188 L40.4414062,32.9082031 L40.1582031,32.9082031 L40.1582031,33.1953125 L40.4414062,33.1953125 L40.4414062,34.5800781 C40.4414062,34.7141927 40.4707031,34.8232422 40.5292969,34.9072266 C40.5878906,34.9912109 40.6992188,35.0332031 40.8632812,35.0332031 Z M42.2988281,35.0742188 C42.405599,35.0742188 42.5013021,35.0638021 42.5859375,35.0429688 C42.7434896,35.0065104 42.875651,34.9361979 42.9824219,34.8320312 C43.046224,34.7721354 43.1038411,34.694987 43.1552734,34.6005859 C43.2067057,34.5061849 43.2369792,34.4205729 43.2460938,34.34375 L43.2460938,34.34375 L42.9003906,34.34375 C42.874349,34.4361979 42.8300781,34.5175781 42.7675781,34.5878906 C42.6582031,34.7089844 42.5117188,34.7695312 42.328125,34.7695312 C42.1315104,34.7695312 41.9863281,34.7054036 41.8925781,34.5771484 C41.7988281,34.4488932 41.7486979,34.2786458 41.7421875,34.0664062 L41.7421875,34.0664062 L43.2753906,34.0664062 C43.2753906,33.8554688 43.264974,33.7018229 43.2441406,33.6054688 C43.2207031,33.4648438 43.1738281,33.3417969 43.1035156,33.2363281 C43.030599,33.125651 42.9244792,33.0354818 42.7851562,32.9658203 C42.6458333,32.8961589 42.5019531,32.8613281 42.3535156,32.8613281 C42.0592448,32.8613281 41.8209635,32.9661458 41.6386719,33.1757812 C41.4563802,33.3854167 41.3652344,33.6582031 41.3652344,33.9941406 C41.3652344,34.3352865 41.4557292,34.6005859 41.6367188,34.7900391 C41.8177083,34.9794922 42.0384115,35.0742188 42.2988281,35.0742188 Z M42.9140625,33.7871094 L41.7519531,33.7871094 C41.7584635,33.6074219 41.8164062,33.4593099 41.9257812,33.3427734 C42.0351562,33.226237 42.1705729,33.1679688 42.3320312,33.1679688 C42.5572917,33.1679688 42.718099,33.2526042 42.8144531,33.421875 C42.8665365,33.5130208 42.8997396,33.6347656 42.9140625,33.7871094 L42.9140625,33.7871094 Z M44.0683594,35 L44.0683594,33.796875 C44.0683594,33.6484375 44.1158854,33.5172526 44.2109375,33.4033203 C44.3059896,33.289388 44.4420573,33.2324219 44.6191406,33.2324219 C44.639974,33.2324219 44.6591797,33.2330729 44.6767578,33.234375 C44.6943359,33.2356771 44.7135417,33.2382812 44.734375,33.2421875 L44.734375,33.2421875 L44.734375,32.8710938 C44.6966146,32.8671875 44.6699219,32.8645833 44.6542969,32.8632812 C44.6386719,32.8619792 44.6276042,32.8613281 44.6210938,32.8613281 C44.4817708,32.8613281 44.358724,32.9117839 44.2519531,33.0126953 C44.1451823,33.1136068 44.078125,33.1992188 44.0507812,33.2695312 L44.0507812,33.2695312 L44.0507812,32.9082031 L43.7167969,32.9082031 L43.7167969,35 L44.0683594,35 Z" id="water" fill="#FFFFFF"></path>
                    <path d="M18.75,49.0332031 C18.8007812,49.0332031 18.8479818,49.030599 18.8916016,49.0253906 C18.9352214,49.0201823 18.9772135,49.0117188 19.0175781,49 L19.0175781,49 L19.0175781,48.7226562 C18.9915365,48.7252604 18.96875,48.726888 18.9492188,48.7275391 C18.9296875,48.7281901 18.9114583,48.7285156 18.8945312,48.7285156 C18.8307292,48.7285156 18.7851562,48.7213542 18.7578125,48.7070312 C18.7083333,48.6822917 18.6835938,48.6334635 18.6835938,48.5605469 L18.6835938,48.5605469 L18.6835938,47.1953125 L19.0175781,47.1953125 L19.0175781,46.9082031 L18.6835938,46.9082031 L18.6835938,46.3242188 L18.328125,46.3242188 L18.328125,46.9082031 L18.0449219,46.9082031 L18.0449219,47.1953125 L18.328125,47.1953125 L18.328125,48.5800781 C18.328125,48.7141927 18.3574219,48.8232422 18.4160156,48.9072266 C18.4746094,48.9912109 18.5859375,49.0332031 18.75,49.0332031 Z M19.7304688,49 L19.7304688,47.796875 C19.7304688,47.6484375 19.7779948,47.5172526 19.8730469,47.4033203 C19.968099,47.289388 20.1041667,47.2324219 20.28125,47.2324219 C20.3020833,47.2324219 20.3212891,47.2330729 20.3388672,47.234375 C20.3564453,47.2356771 20.375651,47.2382812 20.3964844,47.2421875 L20.3964844,47.2421875 L20.3964844,46.8710938 C20.358724,46.8671875 20.3320312,46.8645833 20.3164062,46.8632812 C20.3007812,46.8619792 20.2897135,46.8613281 20.2832031,46.8613281 C20.1438802,46.8613281 20.0208333,46.9117839 19.9140625,47.0126953 C19.8072917,47.1136068 19.7402344,47.1992188 19.7128906,47.2695312 L19.7128906,47.2695312 L19.7128906,46.9082031 L19.3789062,46.9082031 L19.3789062,49 L19.7304688,49 Z M21.2636719,49.0703125 C21.4251302,49.0703125 21.5729167,49.0358073 21.7070312,48.9667969 C21.8411458,48.8977865 21.9440104,48.8164062 22.015625,48.7226562 C22.0273438,48.8059896 22.047526,48.8704427 22.0761719,48.9160156 C22.1308594,49.0019531 22.21875,49.0449219 22.3398438,49.0449219 C22.3893229,49.0449219 22.4283854,49.0429688 22.4570312,49.0390625 C22.4856771,49.0351562 22.5273438,49.0253906 22.5820312,49.0097656 L22.5820312,49.0097656 L22.5820312,48.75 C22.5598958,48.7539062 22.5390625,48.7568359 22.5195312,48.7587891 C22.5,48.7607422 22.4824219,48.7617188 22.4667969,48.7617188 C22.4186198,48.7617188 22.3870443,48.750651 22.3720703,48.7285156 C22.3570964,48.7063802 22.3496094,48.6770833 22.3496094,48.640625 L22.3496094,48.640625 L22.3496094,47.4355469 C22.3496094,47.2376302 22.2734375,47.0917969 22.1210938,46.9980469 C21.9674479,46.9042969 21.7675781,46.8574219 21.5214844,46.8574219 C21.3092448,46.8574219 21.1227214,46.9078776 20.9619141,47.0087891 C20.8011068,47.1097005 20.7174479,47.2890625 20.7109375,47.546875 L20.7109375,47.546875 L21.0390625,47.546875 C21.0520833,47.4388021 21.0800781,47.3574219 21.1230469,47.3027344 C21.1998698,47.203776 21.3300781,47.1542969 21.5136719,47.1542969 C21.672526,47.1542969 21.7945964,47.1813151 21.8798828,47.2353516 C21.9651693,47.289388 22.0078125,47.3763021 22.0078125,47.4960938 C22.0078125,47.5546875 22,47.5996094 21.984375,47.6308594 C21.9570312,47.688151 21.9029948,47.7220052 21.8222656,47.7324219 L21.8222656,47.7324219 L21.2617188,47.8027344 C21.0651042,47.827474 20.90625,47.8932292 20.7851562,48 C20.6640625,48.1067708 20.6035156,48.2571615 20.6035156,48.4511719 C20.6035156,48.6282552 20.6650391,48.7757161 20.7880859,48.8935547 C20.9111328,49.0113932 21.0696615,49.0703125 21.2636719,49.0703125 Z M21.3457031,48.7714844 C21.2441406,48.7714844 21.15625,48.7421875 21.0820312,48.6835938 C21.0078125,48.625 20.9707031,48.5449219 20.9707031,48.4433594 C20.9707031,48.3092448 21.0247396,48.2115885 21.1328125,48.1503906 C21.1966146,48.1139323 21.2923177,48.0872396 21.4199219,48.0703125 L21.4199219,48.0703125 L21.6328125,48.0429688 C21.6979167,48.0351562 21.7643229,48.0221354 21.8320312,48.0039062 C21.8997396,47.9856771 21.9550781,47.9628906 21.9980469,47.9355469 L21.9980469,47.9355469 L21.9980469,48.21875 C21.9980469,48.4348958 21.9003906,48.5904948 21.7050781,48.6855469 C21.5891927,48.7428385 21.469401,48.7714844 21.3457031,48.7714844 Z M23.2773438,49 L23.2773438,47.9042969 C23.2773438,47.7675781 23.2861328,47.6624349 23.3037109,47.5888672 C23.3212891,47.5152995 23.359375,47.4440104 23.4179688,47.375 C23.4908854,47.2890625 23.5755208,47.2317708 23.671875,47.203125 C23.7252604,47.1861979 23.7936198,47.1777344 23.8769531,47.1777344 C24.0410156,47.1777344 24.1542969,47.2428385 24.2167969,47.3730469 C24.2545573,47.4511719 24.2734375,47.5540365 24.2734375,47.6816406 L24.2734375,47.6816406 L24.2734375,49 L24.6308594,49 L24.6308594,47.6582031 C24.6308594,47.4472656 24.6022135,47.2851562 24.5449219,47.171875 C24.4407552,46.9648438 24.2402344,46.8613281 23.9433594,46.8613281 C23.8079427,46.8613281 23.6848958,46.8880208 23.5742188,46.9414062 C23.4635417,46.9947917 23.358724,47.0826823 23.2597656,47.2050781 L23.2597656,47.2050781 L23.2597656,46.9082031 L22.9257812,46.9082031 L22.9257812,49 L23.2773438,49 Z M25.890625,49.0800781 C26.1796875,49.0800781 26.3948568,49.0123698 26.5361328,48.8769531 C26.6774089,48.7415365 26.7480469,48.5807292 26.7480469,48.3945312 C26.7480469,48.2018229 26.6796875,48.0605469 26.5429688,47.9707031 C26.4570312,47.9134115 26.2877604,47.8541667 26.0351562,47.7929688 L26.0351562,47.7929688 L25.8027344,47.7363281 C25.7011719,47.7115885 25.624349,47.6829427 25.5722656,47.6503906 C25.4824219,47.5957031 25.4375,47.5227865 25.4375,47.4316406 C25.4375,47.3483073 25.4716797,47.28125 25.5400391,47.2304688 C25.6083984,47.1796875 25.7089844,47.1542969 25.8417969,47.1542969 C26.0410156,47.1542969 26.1809896,47.2005208 26.2617188,47.2929688 C26.3111979,47.3580729 26.3391927,47.4303385 26.3457031,47.5097656 L26.3457031,47.5097656 L26.6777344,47.5097656 C26.6803385,47.374349 26.6380208,47.2480469 26.5507812,47.1308594 C26.4114583,46.9459635 26.1842448,46.8535156 25.8691406,46.8535156 C25.6282552,46.8535156 25.4365234,46.9147135 25.2939453,47.0371094 C25.1513672,47.1595052 25.0800781,47.3196615 25.0800781,47.5175781 C25.0800781,47.6855469 25.155599,47.8170573 25.3066406,47.9121094 C25.391276,47.9667969 25.5227865,48.016276 25.7011719,48.0605469 L25.7011719,48.0605469 L25.9804688,48.1308594 C26.1302083,48.1686198 26.2304688,48.2018229 26.28125,48.2304688 C26.3606771,48.2773438 26.4003906,48.3457031 26.4003906,48.4355469 C26.4003906,48.5540365 26.3509115,48.6416016 26.2519531,48.6982422 C26.1529948,48.7548828 26.0384115,48.7832031 25.9082031,48.7832031 C25.6894531,48.7832031 25.5358073,48.7265625 25.4472656,48.6132812 C25.3990885,48.5507812 25.3697917,48.4609375 25.359375,48.34375 L25.359375,48.34375 L25.0214844,48.34375 C25.030599,48.5520833 25.0999349,48.726888 25.2294922,48.8681641 C25.3590495,49.0094401 25.5794271,49.0800781 25.890625,49.0800781 Z M27.5859375,49 L27.5859375,47.1953125 L27.9375,47.1953125 L27.9375,46.9179688 L27.5898438,46.9179688 C27.5898438,46.6914062 27.6002604,46.5504557 27.6210938,46.4951172 C27.6419271,46.4397786 27.7057292,46.4121094 27.8125,46.4121094 C27.8268229,46.4121094 27.8421224,46.4124349 27.8583984,46.4130859 C27.8746745,46.413737 27.9010417,46.4153646 27.9375,46.4179688 L27.9375,46.4179688 L27.9375,46.0976562 C27.9075521,46.0950521 27.8808594,46.093099 27.8574219,46.0917969 C27.8339844,46.0904948 27.8111979,46.0898438 27.7890625,46.0898438 C27.5546875,46.0898438 27.3964844,46.1497396 27.3144531,46.2695312 C27.2688802,46.3372396 27.2434896,46.4440104 27.2382812,46.5898438 L27.2382812,46.5898438 L27.2382812,46.9179688 L26.9472656,46.9179688 L26.9472656,47.1953125 L27.2382812,47.1953125 L27.2382812,49 L27.5859375,49 Z M29.0585938,49.0761719 C29.4036458,49.0761719 29.6582031,48.9661458 29.8222656,48.7460938 C29.9863281,48.5260417 30.0683594,48.2473958 30.0683594,47.9101562 C30.0683594,47.5611979 29.9752604,47.296875 29.7890625,47.1171875 C29.6028646,46.9375 29.375,46.8476562 29.1054688,46.8476562 C28.8046875,46.8476562 28.5651042,46.9518229 28.3867188,47.1601562 C28.2083333,47.3684896 28.1191406,47.6484375 28.1191406,48 C28.1191406,48.328125 28.203776,48.5895182 28.3730469,48.7841797 C28.5423177,48.9788411 28.7708333,49.0761719 29.0585938,49.0761719 Z M29.0917969,48.7734375 C28.8795573,48.7734375 28.7246094,48.6992188 28.6269531,48.5507812 C28.5292969,48.4023438 28.4804688,48.2167969 28.4804688,47.9941406 C28.4804688,47.7623698 28.5292969,47.5644531 28.6269531,47.4003906 C28.7246094,47.2363281 28.8808594,47.1542969 29.0957031,47.1542969 C29.3378906,47.1542969 29.5084635,47.250651 29.6074219,47.4433594 C29.6699219,47.5657552 29.7011719,47.7246094 29.7011719,47.9199219 C29.7011719,48.1360677 29.6578776,48.3323568 29.5712891,48.5087891 C29.4847005,48.6852214 29.3248698,48.7734375 29.0917969,48.7734375 Z M30.8476562,49 L30.8476562,47.796875 C30.8476562,47.6484375 30.8951823,47.5172526 30.9902344,47.4033203 C31.0852865,47.289388 31.2213542,47.2324219 31.3984375,47.2324219 C31.4192708,47.2324219 31.4384766,47.2330729 31.4560547,47.234375 C31.4736328,47.2356771 31.4928385,47.2382812 31.5136719,47.2421875 L31.5136719,47.2421875 L31.5136719,46.8710938 C31.4759115,46.8671875 31.4492188,46.8645833 31.4335938,46.8632812 C31.4179688,46.8619792 31.406901,46.8613281 31.4003906,46.8613281 C31.2610677,46.8613281 31.1380208,46.9117839 31.03125,47.0126953 C30.9244792,47.1136068 30.8574219,47.1992188 30.8300781,47.2695312 L30.8300781,47.2695312 L30.8300781,46.9082031 L30.4960938,46.9082031 L30.4960938,49 L30.8476562,49 Z M32.1699219,49 L32.1699219,47.890625 C32.1699219,47.6210938 32.2242839,47.4348958 32.3330078,47.3320312 C32.4417318,47.2291667 32.5625,47.1777344 32.6953125,47.1777344 C32.8411458,47.1777344 32.9407552,47.2265625 32.9941406,47.3242188 C33.0279948,47.3893229 33.0449219,47.4928385 33.0449219,47.6347656 L33.0449219,47.6347656 L33.0449219,49 L33.4023438,49 L33.4023438,47.7832031 C33.4023438,47.5670573 33.4521484,47.4127604 33.5517578,47.3203125 C33.6513672,47.2278646 33.7701823,47.1816406 33.9082031,47.1816406 C34.0084635,47.1816406 34.0934245,47.2076823 34.1630859,47.2597656 C34.2327474,47.311849 34.2675781,47.4075521 34.2675781,47.546875 L34.2675781,47.546875 L34.2675781,49 L34.6328125,49 L34.6328125,47.6074219 C34.6328125,47.422526 34.6054688,47.2753906 34.5507812,47.1660156 C34.4492188,46.9628906 34.2578125,46.8613281 33.9765625,46.8613281 C33.8450521,46.8613281 33.7265625,46.8883464 33.6210938,46.9423828 C33.515625,46.9964193 33.4238281,47.0794271 33.3457031,47.1914062 C33.2988281,47.1002604 33.2467448,47.03125 33.1894531,46.984375 C33.0878906,46.9023438 32.953776,46.8613281 32.7871094,46.8613281 C32.639974,46.8613281 32.5084635,46.9010417 32.3925781,46.9804688 C32.3248698,47.0273438 32.249349,47.1022135 32.1660156,47.2050781 L32.1660156,47.2050781 L32.1660156,46.9082031 L31.8183594,46.9082031 L31.8183594,49 L32.1699219,49 Z M35.7128906,49.0703125 C35.874349,49.0703125 36.0221354,49.0358073 36.15625,48.9667969 C36.2903646,48.8977865 36.3932292,48.8164062 36.4648438,48.7226562 C36.4765625,48.8059896 36.4967448,48.8704427 36.5253906,48.9160156 C36.5800781,49.0019531 36.6679688,49.0449219 36.7890625,49.0449219 C36.8385417,49.0449219 36.8776042,49.0429688 36.90625,49.0390625 C36.9348958,49.0351562 36.9765625,49.0253906 37.03125,49.0097656 L37.03125,49.0097656 L37.03125,48.75 C37.0091146,48.7539062 36.9882812,48.7568359 36.96875,48.7587891 C36.9492188,48.7607422 36.9316406,48.7617188 36.9160156,48.7617188 C36.8678385,48.7617188 36.836263,48.750651 36.8212891,48.7285156 C36.8063151,48.7063802 36.7988281,48.6770833 36.7988281,48.640625 L36.7988281,48.640625 L36.7988281,47.4355469 C36.7988281,47.2376302 36.7226562,47.0917969 36.5703125,46.9980469 C36.4166667,46.9042969 36.2167969,46.8574219 35.9707031,46.8574219 C35.7584635,46.8574219 35.5719401,46.9078776 35.4111328,47.0087891 C35.2503255,47.1097005 35.1666667,47.2890625 35.1601562,47.546875 L35.1601562,47.546875 L35.4882812,47.546875 C35.5013021,47.4388021 35.5292969,47.3574219 35.5722656,47.3027344 C35.6490885,47.203776 35.7792969,47.1542969 35.9628906,47.1542969 C36.1217448,47.1542969 36.2438151,47.1813151 36.3291016,47.2353516 C36.414388,47.289388 36.4570312,47.3763021 36.4570312,47.4960938 C36.4570312,47.5546875 36.4492188,47.5996094 36.4335938,47.6308594 C36.40625,47.688151 36.3522135,47.7220052 36.2714844,47.7324219 L36.2714844,47.7324219 L35.7109375,47.8027344 C35.5143229,47.827474 35.3554688,47.8932292 35.234375,48 C35.1132812,48.1067708 35.0527344,48.2571615 35.0527344,48.4511719 C35.0527344,48.6282552 35.1142578,48.7757161 35.2373047,48.8935547 C35.3603516,49.0113932 35.5188802,49.0703125 35.7128906,49.0703125 Z M35.7949219,48.7714844 C35.6933594,48.7714844 35.6054688,48.7421875 35.53125,48.6835938 C35.4570312,48.625 35.4199219,48.5449219 35.4199219,48.4433594 C35.4199219,48.3092448 35.4739583,48.2115885 35.5820312,48.1503906 C35.6458333,48.1139323 35.7415365,48.0872396 35.8691406,48.0703125 L35.8691406,48.0703125 L36.0820312,48.0429688 C36.1471354,48.0351562 36.2135417,48.0221354 36.28125,48.0039062 C36.3489583,47.9856771 36.4042969,47.9628906 36.4472656,47.9355469 L36.4472656,47.9355469 L36.4472656,48.21875 C36.4472656,48.4348958 36.3496094,48.5904948 36.1542969,48.6855469 C36.0384115,48.7428385 35.9186198,48.7714844 35.7949219,48.7714844 Z M37.8671875,49.0332031 C37.9179688,49.0332031 37.9651693,49.030599 38.0087891,49.0253906 C38.0524089,49.0201823 38.094401,49.0117188 38.1347656,49 L38.1347656,49 L38.1347656,48.7226562 C38.108724,48.7252604 38.0859375,48.726888 38.0664062,48.7275391 C38.046875,48.7281901 38.0286458,48.7285156 38.0117188,48.7285156 C37.9479167,48.7285156 37.9023438,48.7213542 37.875,48.7070312 C37.8255208,48.6822917 37.8007812,48.6334635 37.8007812,48.5605469 L37.8007812,48.5605469 L37.8007812,47.1953125 L38.1347656,47.1953125 L38.1347656,46.9082031 L37.8007812,46.9082031 L37.8007812,46.3242188 L37.4453125,46.3242188 L37.4453125,46.9082031 L37.1621094,46.9082031 L37.1621094,47.1953125 L37.4453125,47.1953125 L37.4453125,48.5800781 C37.4453125,48.7141927 37.4746094,48.8232422 37.5332031,48.9072266 C37.5917969,48.9912109 37.703125,49.0332031 37.8671875,49.0332031 Z M38.84375,46.5292969 L38.84375,46.1308594 L38.4863281,46.1308594 L38.4863281,46.5292969 L38.84375,46.5292969 Z M38.84375,49 L38.84375,46.9179688 L38.4863281,46.9179688 L38.4863281,49 L38.84375,49 Z M40.171875,49.0761719 C40.5169271,49.0761719 40.7714844,48.9661458 40.9355469,48.7460938 C41.0996094,48.5260417 41.1816406,48.2473958 41.1816406,47.9101562 C41.1816406,47.5611979 41.0885417,47.296875 40.9023438,47.1171875 C40.7161458,46.9375 40.4882812,46.8476562 40.21875,46.8476562 C39.9179688,46.8476562 39.6783854,46.9518229 39.5,47.1601562 C39.3216146,47.3684896 39.2324219,47.6484375 39.2324219,48 C39.2324219,48.328125 39.3170573,48.5895182 39.4863281,48.7841797 C39.655599,48.9788411 39.8841146,49.0761719 40.171875,49.0761719 Z M40.2050781,48.7734375 C39.9928385,48.7734375 39.8378906,48.6992188 39.7402344,48.5507812 C39.6425781,48.4023438 39.59375,48.2167969 39.59375,47.9941406 C39.59375,47.7623698 39.6425781,47.5644531 39.7402344,47.4003906 C39.8378906,47.2363281 39.9941406,47.1542969 40.2089844,47.1542969 C40.4511719,47.1542969 40.6217448,47.250651 40.7207031,47.4433594 C40.7832031,47.5657552 40.8144531,47.7246094 40.8144531,47.9199219 C40.8144531,48.1360677 40.7711589,48.3323568 40.6845703,48.5087891 C40.5979818,48.6852214 40.438151,48.7734375 40.2050781,48.7734375 Z M41.9511719,49 L41.9511719,47.9042969 C41.9511719,47.7675781 41.9599609,47.6624349 41.9775391,47.5888672 C41.9951172,47.5152995 42.0332031,47.4440104 42.0917969,47.375 C42.1647135,47.2890625 42.249349,47.2317708 42.3457031,47.203125 C42.3990885,47.1861979 42.4674479,47.1777344 42.5507812,47.1777344 C42.7148438,47.1777344 42.828125,47.2428385 42.890625,47.3730469 C42.9283854,47.4511719 42.9472656,47.5540365 42.9472656,47.6816406 L42.9472656,47.6816406 L42.9472656,49 L43.3046875,49 L43.3046875,47.6582031 C43.3046875,47.4472656 43.2760417,47.2851562 43.21875,47.171875 C43.1145833,46.9648438 42.9140625,46.8613281 42.6171875,46.8613281 C42.4817708,46.8613281 42.358724,46.8880208 42.2480469,46.9414062 C42.1373698,46.9947917 42.0325521,47.0826823 41.9335938,47.2050781 L41.9335938,47.2050781 L41.9335938,46.9082031 L41.5996094,46.9082031 L41.5996094,49 L41.9511719,49 Z" id="transformation" fill="#000000"></path>
                    <path d="M18.6933594,35 L18.6933594,33.1953125 L19.0449219,33.1953125 L19.0449219,32.9179688 L18.6972656,32.9179688 C18.6972656,32.6914062 18.7076823,32.5504557 18.7285156,32.4951172 C18.749349,32.4397786 18.813151,32.4121094 18.9199219,32.4121094 C18.9342448,32.4121094 18.9495443,32.4124349 18.9658203,32.4130859 C18.9820964,32.413737 19.0084635,32.4153646 19.0449219,32.4179688 L19.0449219,32.4179688 L19.0449219,32.0976562 C19.014974,32.0950521 18.9882812,32.093099 18.9648438,32.0917969 L18.9648438,32.0917969 L18.8964844,32.0898438 C18.6621094,32.0898438 18.5039062,32.1497396 18.421875,32.2695312 C18.3763021,32.3372396 18.3509115,32.4440104 18.3457031,32.5898438 L18.3457031,32.5898438 L18.3457031,32.9179688 L18.0546875,32.9179688 L18.0546875,33.1953125 L18.3457031,33.1953125 L18.3457031,35 L18.6933594,35 Z M19.734375,32.5292969 L19.734375,32.1308594 L19.3828125,32.1308594 L19.3828125,32.5292969 L19.734375,32.5292969 Z M19.734375,35 L19.734375,32.9179688 L19.3828125,32.9179688 L19.3828125,35 L19.734375,35 Z M20.6191406,35 L20.6191406,33.796875 C20.6191406,33.6484375 20.6666667,33.5172526 20.7617188,33.4033203 C20.8567708,33.289388 20.9928385,33.2324219 21.1699219,33.2324219 C21.1907552,33.2324219 21.2099609,33.2330729 21.2275391,33.234375 C21.2451172,33.2356771 21.2643229,33.2382812 21.2851562,33.2421875 L21.2851562,33.2421875 L21.2851562,32.8710938 C21.2473958,32.8671875 21.2207031,32.8645833 21.2050781,32.8632812 C21.1894531,32.8619792 21.1783854,32.8613281 21.171875,32.8613281 C21.0325521,32.8613281 20.9095052,32.9117839 20.8027344,33.0126953 C20.6959635,33.1136068 20.6289062,33.1992188 20.6015625,33.2695312 L20.6015625,33.2695312 L20.6015625,32.9082031 L20.2675781,32.9082031 L20.2675781,35 L20.6191406,35 Z M22.40625,35.0742188 C22.5130208,35.0742188 22.608724,35.0638021 22.6933594,35.0429688 C22.8509115,35.0065104 22.9830729,34.9361979 23.0898438,34.8320312 C23.1536458,34.7721354 23.211263,34.694987 23.2626953,34.6005859 C23.3141276,34.5061849 23.344401,34.4205729 23.3535156,34.34375 L23.3535156,34.34375 L23.0078125,34.34375 C22.9817708,34.4361979 22.9375,34.5175781 22.875,34.5878906 C22.765625,34.7089844 22.6191406,34.7695312 22.4355469,34.7695312 C22.2389323,34.7695312 22.09375,34.7054036 22,34.5771484 C21.90625,34.4488932 21.8561198,34.2786458 21.8496094,34.0664062 L21.8496094,34.0664062 L23.3828125,34.0664062 C23.3828125,33.8554688 23.3723958,33.7018229 23.3515625,33.6054688 C23.328125,33.4648438 23.28125,33.3417969 23.2109375,33.2363281 C23.1380208,33.125651 23.031901,33.0354818 22.8925781,32.9658203 C22.7532552,32.8961589 22.609375,32.8613281 22.4609375,32.8613281 C22.1666667,32.8613281 21.9283854,32.9661458 21.7460938,33.1757812 C21.5638021,33.3854167 21.4726562,33.6582031 21.4726562,33.9941406 C21.4726562,34.3352865 21.563151,34.6005859 21.7441406,34.7900391 C21.9251302,34.9794922 22.1458333,35.0742188 22.40625,35.0742188 Z M23.0214844,33.7871094 L21.859375,33.7871094 C21.8658854,33.6074219 21.9238281,33.4593099 22.0332031,33.3427734 C22.1425781,33.226237 22.2779948,33.1679688 22.4394531,33.1679688 C22.6647135,33.1679688 22.8255208,33.2526042 22.921875,33.421875 C22.9739583,33.5130208 23.0071615,33.6347656 23.0214844,33.7871094 L23.0214844,33.7871094 Z" id="fre" fill="#000000"></path>
                    <path d="M0.619140625,28 L0.619140625,25.1308594 L0.267578125,25.1308594 L0.267578125,28 L0.619140625,28 Z M1.50390625,25.5292969 L1.50390625,25.1308594 L1.14648438,25.1308594 L1.14648438,25.5292969 L1.50390625,25.5292969 Z M1.50390625,28 L1.50390625,25.9179688 L1.14648438,25.9179688 L1.14648438,28 L1.50390625,28 Z M2.78710938,28.8847656 C3.19205729,28.8847656 3.46744792,28.7428385 3.61328125,28.4589844 C3.69140625,28.3053385 3.73046875,28.0957031 3.73046875,27.8300781 L3.73046875,27.8300781 L3.73046875,25.9277344 L3.40625,25.9277344 L3.40625,26.1914062 C3.33723958,26.1041667 3.26953125,26.0377604 3.203125,25.9921875 C3.08072917,25.9114583 2.9375,25.8710938 2.7734375,25.8710938 C2.53125,25.8710938 2.32454427,25.969401 2.15332031,26.1660156 C1.98209635,26.3626302 1.89648438,26.6360677 1.89648438,26.9863281 C1.89648438,27.3574219 1.98144531,27.6233724 2.15136719,27.7841797 C2.32128906,27.944987 2.51953125,28.0253906 2.74609375,28.0253906 C2.90885417,28.0253906 3.03971354,27.999349 3.13867188,27.9472656 C3.23763021,27.8951823 3.32226562,27.8157552 3.39257812,27.7089844 C3.39648438,27.9967448 3.37369792,28.1966146 3.32421875,28.3085938 C3.24088542,28.4986979 3.06445312,28.59375 2.79492188,28.59375 C2.62434896,28.59375 2.49934896,28.5546875 2.41992188,28.4765625 C2.36914062,28.4257812 2.33528646,28.3535156 2.31835938,28.2597656 L2.31835938,28.2597656 L1.9609375,28.2597656 C1.97916667,28.4746094 2.06510417,28.632487 2.21875,28.7333984 C2.37239583,28.8343099 2.56184896,28.8847656 2.78710938,28.8847656 Z M2.78710938,27.7382812 C2.62565104,27.7382812 2.49707031,27.6767578 2.40136719,27.5537109 C2.30566406,27.4306641 2.2578125,27.2513021 2.2578125,27.015625 C2.2578125,26.8151042 2.28190104,26.6529948 2.33007812,26.5292969 C2.42122396,26.297526 2.59049479,26.1816406 2.83789062,26.1816406 C3.00325521,26.1816406 3.13932292,26.2441406 3.24609375,26.3691406 C3.35286458,26.4941406 3.40625,26.6861979 3.40625,26.9453125 C3.40625,27.1171875 3.37760417,27.2675781 3.3203125,27.3964844 C3.21744792,27.624349 3.03971354,27.7382812 2.78710938,27.7382812 Z M4.61132812,28 L4.61132812,26.890625 C4.61132812,26.6119792 4.67057292,26.422526 4.7890625,26.3222656 C4.90755208,26.2220052 5.03971354,26.171875 5.18554688,26.171875 C5.36132812,26.171875 5.48111979,26.2291667 5.54492188,26.34375 C5.58398438,26.4153646 5.60351562,26.5279948 5.60351562,26.6816406 L5.60351562,26.6816406 L5.60351562,28 L5.96484375,28 L5.96484375,26.6582031 C5.96484375,26.452474 5.93554688,26.2916667 5.87695312,26.1757812 C5.76888021,25.9635417 5.56315104,25.8574219 5.25976562,25.8574219 C5.09049479,25.8574219 4.94921875,25.8945312 4.8359375,25.96875 C4.76953125,26.0117188 4.69466146,26.0859375 4.61132812,26.1914062 L4.61132812,26.1914062 L4.61132812,25.1210938 L4.25976562,25.1210938 L4.25976562,28 L4.61132812,28 Z M6.9765625,28.0332031 C7.02734375,28.0332031 7.07454427,28.030599 7.11816406,28.0253906 C7.16178385,28.0201823 7.20377604,28.0117188 7.24414062,28 L7.24414062,28 L7.24414062,27.7226562 C7.21809896,27.7252604 7.1953125,27.726888 7.17578125,27.7275391 C7.15625,27.7281901 7.13802083,27.7285156 7.12109375,27.7285156 C7.05729167,27.7285156 7.01171875,27.7213542 6.984375,27.7070312 C6.93489583,27.6822917 6.91015625,27.6334635 6.91015625,27.5605469 L6.91015625,27.5605469 L6.91015625,26.1953125 L7.24414062,26.1953125 L7.24414062,25.9082031 L6.91015625,25.9082031 L6.91015625,25.3242188 L6.5546875,25.3242188 L6.5546875,25.9082031 L6.27148438,25.9082031 L6.27148438,26.1953125 L6.5546875,26.1953125 L6.5546875,27.5800781 C6.5546875,27.7141927 6.58398438,27.8232422 6.64257812,27.9072266 C6.70117188,27.9912109 6.8125,28.0332031 6.9765625,28.0332031 Z" id="light" fill="#000000"></path>
                    <path d="M31.5878906,21 L31.5878906,20.2148438 L31.8828125,19.9453125 L32.5351562,21 L32.984375,21 L32.1386719,19.6914062 L32.9394531,18.9082031 L32.4902344,18.9082031 L31.5878906,19.796875 L31.5878906,18.1308594 L31.25,18.1308594 L31.25,21 L31.5878906,21 Z M33.8203125,21.0703125 C33.9817708,21.0703125 34.1295573,21.0358073 34.2636719,20.9667969 C34.3977865,20.8977865 34.500651,20.8164062 34.5722656,20.7226562 C34.5839844,20.8059896 34.6041667,20.8704427 34.6328125,20.9160156 C34.6875,21.0019531 34.7753906,21.0449219 34.8964844,21.0449219 C34.9459635,21.0449219 34.985026,21.0429688 35.0136719,21.0390625 C35.0423177,21.0351562 35.0839844,21.0253906 35.1386719,21.0097656 L35.1386719,21.0097656 L35.1386719,20.75 C35.1165365,20.7539062 35.0957031,20.7568359 35.0761719,20.7587891 C35.0566406,20.7607422 35.0390625,20.7617188 35.0234375,20.7617188 C34.9752604,20.7617188 34.9436849,20.750651 34.9287109,20.7285156 C34.913737,20.7063802 34.90625,20.6770833 34.90625,20.640625 L34.90625,20.640625 L34.90625,19.4355469 C34.90625,19.2376302 34.8300781,19.0917969 34.6777344,18.9980469 C34.5240885,18.9042969 34.3242188,18.8574219 34.078125,18.8574219 C33.8658854,18.8574219 33.679362,18.9078776 33.5185547,19.0087891 C33.3577474,19.1097005 33.2740885,19.2890625 33.2675781,19.546875 L33.2675781,19.546875 L33.5957031,19.546875 C33.608724,19.4388021 33.6367188,19.3574219 33.6796875,19.3027344 C33.7565104,19.203776 33.8867188,19.1542969 34.0703125,19.1542969 C34.2291667,19.1542969 34.351237,19.1813151 34.4365234,19.2353516 C34.5218099,19.289388 34.5644531,19.3763021 34.5644531,19.4960938 C34.5644531,19.5546875 34.5566406,19.5996094 34.5410156,19.6308594 C34.5136719,19.688151 34.4596354,19.7220052 34.3789062,19.7324219 L34.3789062,19.7324219 L33.8183594,19.8027344 C33.6217448,19.827474 33.4628906,19.8932292 33.3417969,20 C33.2207031,20.1067708 33.1601562,20.2571615 33.1601562,20.4511719 C33.1601562,20.6282552 33.2216797,20.7757161 33.3447266,20.8935547 C33.4677734,21.0113932 33.6263021,21.0703125 33.8203125,21.0703125 Z M33.9023438,20.7714844 C33.8007812,20.7714844 33.7128906,20.7421875 33.6386719,20.6835938 C33.5644531,20.625 33.5273438,20.5449219 33.5273438,20.4433594 C33.5273438,20.3092448 33.5813802,20.2115885 33.6894531,20.1503906 C33.7532552,20.1139323 33.8489583,20.0872396 33.9765625,20.0703125 L33.9765625,20.0703125 L34.1894531,20.0429688 C34.2545573,20.0351562 34.3209635,20.0221354 34.3886719,20.0039062 C34.4563802,19.9856771 34.5117188,19.9628906 34.5546875,19.9355469 L34.5546875,19.9355469 L34.5546875,20.21875 C34.5546875,20.4348958 34.4570312,20.5904948 34.2617188,20.6855469 C34.1458333,20.7428385 34.0260417,20.7714844 33.9023438,20.7714844 Z M36.390625,21.0664062 C36.6744792,21.0664062 36.8964844,20.9570312 37.0566406,20.7382812 C37.2167969,20.5195312 37.296875,20.2447917 37.296875,19.9140625 C37.296875,19.5651042 37.2158203,19.3011068 37.0537109,19.1220703 C36.8916016,18.9430339 36.6803385,18.8535156 36.4199219,18.8535156 C36.2949219,18.8535156 36.1790365,18.8798828 36.0722656,18.9326172 C35.9654948,18.9853516 35.8736979,19.061849 35.796875,19.1621094 L35.796875,19.1621094 L35.796875,18.1210938 L35.4550781,18.1210938 L35.4550781,21 L35.7792969,21 L35.7792969,20.7324219 C35.8535156,20.8326823 35.9231771,20.905599 35.9882812,20.9511719 C36.0976562,21.0279948 36.2317708,21.0664062 36.390625,21.0664062 Z M36.3691406,20.7558594 C36.1165365,20.7558594 35.9440104,20.640625 35.8515625,20.4101562 C35.8020833,20.2877604 35.7773438,20.1282552 35.7773438,19.9316406 C35.7773438,19.6595052 35.8375651,19.4641927 35.9580078,19.3457031 C36.0784505,19.2272135 36.21875,19.1679688 36.3789062,19.1679688 C36.5625,19.1679688 36.7014974,19.2402344 36.7958984,19.3847656 C36.8902995,19.5292969 36.9375,19.7115885 36.9375,19.9316406 C36.9375,20.1790365 36.8902995,20.3782552 36.7958984,20.5292969 C36.7014974,20.6803385 36.5592448,20.7558594 36.3691406,20.7558594 Z M38.2695312,21.0703125 C38.4309896,21.0703125 38.578776,21.0358073 38.7128906,20.9667969 C38.8470052,20.8977865 38.9498698,20.8164062 39.0214844,20.7226562 C39.0332031,20.8059896 39.0533854,20.8704427 39.0820312,20.9160156 C39.1367188,21.0019531 39.2246094,21.0449219 39.3457031,21.0449219 C39.3951823,21.0449219 39.4342448,21.0429688 39.4628906,21.0390625 C39.4915365,21.0351562 39.5332031,21.0253906 39.5878906,21.0097656 L39.5878906,21.0097656 L39.5878906,20.75 C39.5657552,20.7539062 39.5449219,20.7568359 39.5253906,20.7587891 C39.5058594,20.7607422 39.4882812,20.7617188 39.4726562,20.7617188 C39.4244792,20.7617188 39.3929036,20.750651 39.3779297,20.7285156 C39.3629557,20.7063802 39.3554688,20.6770833 39.3554688,20.640625 L39.3554688,20.640625 L39.3554688,19.4355469 C39.3554688,19.2376302 39.2792969,19.0917969 39.1269531,18.9980469 C38.9733073,18.9042969 38.7734375,18.8574219 38.5273438,18.8574219 C38.3151042,18.8574219 38.1285807,18.9078776 37.9677734,19.0087891 C37.8069661,19.1097005 37.7233073,19.2890625 37.7167969,19.546875 L37.7167969,19.546875 L38.0449219,19.546875 C38.0579427,19.4388021 38.0859375,19.3574219 38.1289062,19.3027344 C38.2057292,19.203776 38.3359375,19.1542969 38.5195312,19.1542969 C38.6783854,19.1542969 38.8004557,19.1813151 38.8857422,19.2353516 C38.9710286,19.289388 39.0136719,19.3763021 39.0136719,19.4960938 C39.0136719,19.5546875 39.0058594,19.5996094 38.9902344,19.6308594 C38.9628906,19.688151 38.9088542,19.7220052 38.828125,19.7324219 L38.828125,19.7324219 L38.2675781,19.8027344 C38.0709635,19.827474 37.9121094,19.8932292 37.7910156,20 C37.6699219,20.1067708 37.609375,20.2571615 37.609375,20.4511719 C37.609375,20.6282552 37.6708984,20.7757161 37.7939453,20.8935547 C37.9169922,21.0113932 38.0755208,21.0703125 38.2695312,21.0703125 Z M38.3515625,20.7714844 C38.25,20.7714844 38.1621094,20.7421875 38.0878906,20.6835938 C38.0136719,20.625 37.9765625,20.5449219 37.9765625,20.4433594 C37.9765625,20.3092448 38.030599,20.2115885 38.1386719,20.1503906 C38.202474,20.1139323 38.2981771,20.0872396 38.4257812,20.0703125 L38.4257812,20.0703125 L38.6386719,20.0429688 C38.703776,20.0351562 38.7701823,20.0221354 38.8378906,20.0039062 C38.905599,19.9856771 38.9609375,19.9628906 39.0039062,19.9355469 L39.0039062,19.9355469 L39.0039062,20.21875 C39.0039062,20.4348958 38.90625,20.5904948 38.7109375,20.6855469 C38.5950521,20.7428385 38.4752604,20.7714844 38.3515625,20.7714844 Z M40.2832031,21 L40.2832031,19.890625 C40.2832031,19.6210938 40.3375651,19.4348958 40.4462891,19.3320312 C40.555013,19.2291667 40.6757812,19.1777344 40.8085938,19.1777344 C40.9544271,19.1777344 41.0540365,19.2265625 41.1074219,19.3242188 C41.141276,19.3893229 41.1582031,19.4928385 41.1582031,19.6347656 L41.1582031,19.6347656 L41.1582031,21 L41.515625,21 L41.515625,19.7832031 C41.515625,19.5670573 41.5654297,19.4127604 41.6650391,19.3203125 C41.7646484,19.2278646 41.8834635,19.1816406 42.0214844,19.1816406 C42.1217448,19.1816406 42.2067057,19.2076823 42.2763672,19.2597656 C42.3460286,19.311849 42.3808594,19.4075521 42.3808594,19.546875 L42.3808594,19.546875 L42.3808594,21 L42.7460938,21 L42.7460938,19.6074219 C42.7460938,19.422526 42.71875,19.2753906 42.6640625,19.1660156 C42.5625,18.9628906 42.3710938,18.8613281 42.0898438,18.8613281 C41.9583333,18.8613281 41.8398438,18.8883464 41.734375,18.9423828 C41.6289062,18.9964193 41.5371094,19.0794271 41.4589844,19.1914062 C41.4121094,19.1002604 41.360026,19.03125 41.3027344,18.984375 C41.2011719,18.9023438 41.0670573,18.8613281 40.9003906,18.8613281 C40.7532552,18.8613281 40.6217448,18.9010417 40.5058594,18.9804688 C40.438151,19.0273438 40.3626302,19.1022135 40.2792969,19.2050781 L40.2792969,19.2050781 L40.2792969,18.9082031 L39.9316406,18.9082031 L39.9316406,21 L40.2832031,21 Z" id="kabam" fill="#FFFFFF" transform="translate(36.998047, 19.595703) rotate(90.000000) translate(-36.998047, -19.595703) "></path>
                    <path d="M24.5820312,27.8339844 L24.5820312,26.765625 C24.6588542,26.8606771 24.7285156,26.9277344 24.7910156,26.9667969 C24.8977865,27.0358073 25.0299479,27.0703125 25.1875,27.0703125 C25.3880208,27.0703125 25.5638021,27.0084635 25.7148438,26.8847656 C25.953125,26.6894531 26.0722656,26.3639323 26.0722656,25.9082031 C26.0722656,25.5709635 25.9895833,25.3115234 25.8242188,25.1298828 C25.6588542,24.9482422 25.4576823,24.8574219 25.2207031,24.8574219 C25.0605469,24.8574219 24.921224,24.8964844 24.8027344,24.9746094 C24.719401,25.0266927 24.6425781,25.1002604 24.5722656,25.1953125 L24.5722656,25.1953125 L24.5722656,24.9179688 L24.2304688,24.9179688 L24.2304688,27.8339844 L24.5820312,27.8339844 Z M25.140625,26.7636719 C24.8984375,26.7636719 24.7317708,26.655599 24.640625,26.4394531 C24.5924479,26.3261719 24.5683594,26.1888021 24.5683594,26.0273438 C24.5683594,25.8268229 24.5924479,25.6614583 24.640625,25.53125 C24.7304688,25.2877604 24.8971354,25.1660156 25.140625,25.1660156 C25.3828125,25.1660156 25.5494792,25.28125 25.640625,25.5117188 C25.6888021,25.6315104 25.7128906,25.7747396 25.7128906,25.9414062 C25.7128906,26.2148438 25.6585286,26.4202474 25.5498047,26.5576172 C25.4410807,26.694987 25.3046875,26.7636719 25.140625,26.7636719 Z M26.8398438,24.5292969 L26.8398438,24.1308594 L26.4824219,24.1308594 L26.4824219,24.5292969 L26.8398438,24.5292969 Z M26.8398438,27 L26.8398438,24.9179688 L26.4824219,24.9179688 L26.4824219,27 L26.8398438,27 Z M27.8632812,27.0332031 C27.9140625,27.0332031 27.961263,27.030599 28.0048828,27.0253906 C28.0485026,27.0201823 28.0904948,27.0117188 28.1308594,27 L28.1308594,27 L28.1308594,26.7226562 C28.1048177,26.7252604 28.0820312,26.726888 28.0625,26.7275391 C28.0429688,26.7281901 28.0247396,26.7285156 28.0078125,26.7285156 C27.9440104,26.7285156 27.8984375,26.7213542 27.8710938,26.7070312 C27.8216146,26.6822917 27.796875,26.6334635 27.796875,26.5605469 L27.796875,26.5605469 L27.796875,25.1953125 L28.1308594,25.1953125 L28.1308594,24.9082031 L27.796875,24.9082031 L27.796875,24.3242188 L27.4414062,24.3242188 L27.4414062,24.9082031 L27.1582031,24.9082031 L27.1582031,25.1953125 L27.4414062,25.1953125 L27.4414062,26.5800781 C27.4414062,26.7141927 27.4707031,26.8232422 27.5292969,26.9072266 C27.5878906,26.9912109 27.6992188,27.0332031 27.8632812,27.0332031 Z M28.8339844,27 L28.8339844,25.890625 C28.8339844,25.6119792 28.8932292,25.422526 29.0117188,25.3222656 C29.1302083,25.2220052 29.2623698,25.171875 29.4082031,25.171875 C29.5839844,25.171875 29.703776,25.2291667 29.7675781,25.34375 C29.8066406,25.4153646 29.8261719,25.5279948 29.8261719,25.6816406 L29.8261719,25.6816406 L29.8261719,27 L30.1875,27 L30.1875,25.6582031 C30.1875,25.452474 30.1582031,25.2916667 30.0996094,25.1757812 C29.9915365,24.9635417 29.7858073,24.8574219 29.4824219,24.8574219 C29.313151,24.8574219 29.171875,24.8945312 29.0585938,24.96875 C28.9921875,25.0117188 28.9173177,25.0859375 28.8339844,25.1914062 L28.8339844,25.1914062 L28.8339844,24.1210938 L28.4824219,24.1210938 L28.4824219,27 L28.8339844,27 Z M31.2695312,27.0703125 C31.4309896,27.0703125 31.578776,27.0358073 31.7128906,26.9667969 C31.8470052,26.8977865 31.9498698,26.8164062 32.0214844,26.7226562 C32.0332031,26.8059896 32.0533854,26.8704427 32.0820312,26.9160156 C32.1367188,27.0019531 32.2246094,27.0449219 32.3457031,27.0449219 C32.3951823,27.0449219 32.4342448,27.0429688 32.4628906,27.0390625 C32.4915365,27.0351562 32.5332031,27.0253906 32.5878906,27.0097656 L32.5878906,27.0097656 L32.5878906,26.75 C32.5657552,26.7539062 32.5449219,26.7568359 32.5253906,26.7587891 C32.5058594,26.7607422 32.4882812,26.7617188 32.4726562,26.7617188 C32.4244792,26.7617188 32.3929036,26.750651 32.3779297,26.7285156 C32.3629557,26.7063802 32.3554688,26.6770833 32.3554688,26.640625 L32.3554688,26.640625 L32.3554688,25.4355469 C32.3554688,25.2376302 32.2792969,25.0917969 32.1269531,24.9980469 C31.9733073,24.9042969 31.7734375,24.8574219 31.5273438,24.8574219 C31.3151042,24.8574219 31.1285807,24.9078776 30.9677734,25.0087891 C30.8069661,25.1097005 30.7233073,25.2890625 30.7167969,25.546875 L30.7167969,25.546875 L31.0449219,25.546875 C31.0579427,25.4388021 31.0859375,25.3574219 31.1289062,25.3027344 C31.2057292,25.203776 31.3359375,25.1542969 31.5195312,25.1542969 C31.6783854,25.1542969 31.8004557,25.1813151 31.8857422,25.2353516 C31.9710286,25.289388 32.0136719,25.3763021 32.0136719,25.4960938 C32.0136719,25.5546875 32.0058594,25.5996094 31.9902344,25.6308594 C31.9628906,25.688151 31.9088542,25.7220052 31.828125,25.7324219 L31.828125,25.7324219 L31.2675781,25.8027344 C31.0709635,25.827474 30.9121094,25.8932292 30.7910156,26 C30.6699219,26.1067708 30.609375,26.2571615 30.609375,26.4511719 C30.609375,26.6282552 30.6708984,26.7757161 30.7939453,26.8935547 C30.9169922,27.0113932 31.0755208,27.0703125 31.2695312,27.0703125 Z M31.3515625,26.7714844 C31.25,26.7714844 31.1621094,26.7421875 31.0878906,26.6835938 C31.0136719,26.625 30.9765625,26.5449219 30.9765625,26.4433594 C30.9765625,26.3092448 31.030599,26.2115885 31.1386719,26.1503906 C31.202474,26.1139323 31.2981771,26.0872396 31.4257812,26.0703125 L31.4257812,26.0703125 L31.6386719,26.0429688 C31.703776,26.0351562 31.7701823,26.0221354 31.8378906,26.0039062 C31.905599,25.9856771 31.9609375,25.9628906 32.0039062,25.9355469 L32.0039062,25.9355469 L32.0039062,26.21875 C32.0039062,26.4348958 31.90625,26.5904948 31.7109375,26.6855469 C31.5950521,26.7428385 31.4752604,26.7714844 31.3515625,26.7714844 Z" id="pitha" fill="#000000"></path>
                    <path d="M45.0136719,4.06054688 C45.2571615,4.06054688 45.4570312,3.99641927 45.6132812,3.86816406 C45.7695312,3.73990885 45.8671875,3.53710938 45.90625,3.25976562 L45.90625,3.25976562 L45.5644531,3.25976562 C45.531901,3.41471354 45.4729818,3.53678385 45.3876953,3.62597656 C45.3024089,3.71516927 45.186849,3.75976562 45.0410156,3.75976562 C44.8509115,3.75976562 44.7115885,3.68815104 44.6230469,3.54492188 C44.5345052,3.40169271 44.4902344,3.22526042 44.4902344,3.015625 C44.4902344,2.80729167 44.5214844,2.63216146 44.5839844,2.49023438 C44.6803385,2.27148438 44.8404948,2.16210938 45.0644531,2.16210938 C45.2285156,2.16210938 45.3476562,2.2047526 45.421875,2.29003906 C45.4960938,2.37532552 45.5436198,2.48242188 45.5644531,2.61132812 L45.5644531,2.61132812 L45.90625,2.61132812 C45.8763021,2.33138021 45.7874349,2.13411458 45.6396484,2.01953125 C45.491862,1.90494792 45.3001302,1.84765625 45.0644531,1.84765625 C44.7884115,1.84765625 44.5611979,1.94986979 44.3828125,2.15429688 C44.2044271,2.35872396 44.1152344,2.64453125 44.1152344,3.01171875 C44.1152344,3.31119792 44.1966146,3.5608724 44.359375,3.76074219 C44.5221354,3.96061198 44.7402344,4.06054688 45.0136719,4.06054688 Z M47.0546875,4.07617188 C47.3997396,4.07617188 47.6542969,3.96614583 47.8183594,3.74609375 C47.9824219,3.52604167 48.0644531,3.24739583 48.0644531,2.91015625 C48.0644531,2.56119792 47.9713542,2.296875 47.7851562,2.1171875 C47.5989583,1.9375 47.3710938,1.84765625 47.1015625,1.84765625 C46.8007812,1.84765625 46.5611979,1.95182292 46.3828125,2.16015625 C46.2044271,2.36848958 46.1152344,2.6484375 46.1152344,3 C46.1152344,3.328125 46.1998698,3.58951823 46.3691406,3.78417969 C46.5384115,3.97884115 46.7669271,4.07617188 47.0546875,4.07617188 Z M47.0878906,3.7734375 C46.875651,3.7734375 46.7207031,3.69921875 46.6230469,3.55078125 C46.5253906,3.40234375 46.4765625,3.21679688 46.4765625,2.99414062 C46.4765625,2.76236979 46.5253906,2.56445312 46.6230469,2.40039062 C46.7207031,2.23632812 46.8769531,2.15429688 47.0917969,2.15429688 C47.3339844,2.15429688 47.5045573,2.25065104 47.6035156,2.44335938 C47.6660156,2.56575521 47.6972656,2.72460938 47.6972656,2.91992188 C47.6972656,3.13606771 47.6539714,3.33235677 47.5673828,3.50878906 C47.4807943,3.68522135 47.3209635,3.7734375 47.0878906,3.7734375 Z M48.84375,4 L48.84375,1.13085938 L48.4921875,1.13085938 L48.4921875,4 L48.84375,4 Z M50.0839844,4.07421875 C50.2285156,4.07421875 50.3567708,4.04557292 50.46875,3.98828125 C50.5807292,3.93098958 50.6777344,3.83789062 50.7597656,3.70898438 L50.7597656,3.70898438 L50.7597656,4 L51.0761719,4 L51.0761719,1.12109375 L50.7382812,1.12109375 L50.7382812,2.17773438 C50.6588542,2.08007812 50.5878906,2.01171875 50.5253906,1.97265625 C50.4173177,1.90494792 50.2832031,1.87109375 50.1230469,1.87109375 C49.8339844,1.87109375 49.6116536,1.9827474 49.4560547,2.20605469 C49.3004557,2.42936198 49.2226562,2.69335938 49.2226562,2.99804688 C49.2226562,3.32356771 49.3079427,3.5843099 49.4785156,3.78027344 C49.6490885,3.97623698 49.8509115,4.07421875 50.0839844,4.07421875 Z M50.1933594,3.76757812 C49.983724,3.76757812 49.8313802,3.69205729 49.7363281,3.54101562 C49.641276,3.38997396 49.59375,3.20247396 49.59375,2.97851562 C49.59375,2.71549479 49.648763,2.51627604 49.7587891,2.38085938 C49.8688151,2.24544271 50.0123698,2.17773438 50.1894531,2.17773438 C50.3483073,2.17773438 50.4817708,2.24121094 50.5898438,2.36816406 C50.6979167,2.49511719 50.7519531,2.69075521 50.7519531,2.95507812 C50.7519531,3.21679688 50.6995443,3.41764323 50.5947266,3.55761719 C50.4899089,3.69759115 50.3561198,3.76757812 50.1933594,3.76757812 Z" id="cold" fill="#000000"></path>
                </g>
            </g>
        </g>
    </g>
</svg>