<?xml version="1.0" encoding="UTF-8"?>
<svg width="40px" height="40px" viewBox="0 0 40 40" version="1.1" xmlns="http://www.w3.org/2000/svg" xmlns:xlink="http://www.w3.org/1999/xlink">
    <title>Admin@1.5x</title>
    <g id="Admin" stroke="none" stroke-width="1" fill="none" fill-rule="evenodd">
        <g id="mdi:cog-outline" transform="translate(1.000000, 1.000000)">
            <rect id="ViewBox" x="0" y="0" width="38" height="38"></rect>
            <path d="M19,12.6666667 C22.4978034,12.6666667 25.3333333,15.5021966 25.3333333,19 C25.3333333,22.4978034 22.4978034,25.3333333 19,25.3333333 C15.5021966,25.3333333 12.6666667,22.4978034 12.6666667,19 C12.6666667,15.5021966 15.5021966,12.6666667 19,12.6666667 M19,15.8333333 C17.2510983,15.8333333 15.8333333,17.2510983 15.8333333,19 C15.8333333,20.7489017 17.2510983,22.1666667 19,22.1666667 C20.7489017,22.1666667 22.1666667,20.7489017 22.1666667,19 C22.1666667,17.2510983 20.7489017,15.8333333 19,15.8333333 M15.8333333,34.8333333 C15.4375,34.8333333 15.105,34.5483333 15.0416667,34.1683333 L14.4558333,29.9725 C13.4583333,29.5766667 12.6033333,29.0383333 11.78,28.405 L7.8375,30.0041667 C7.48916667,30.1308333 7.06166667,30.0041667 6.87166667,29.6558333 L3.705,24.1775 C3.50452209,23.8399991 3.58587498,23.406117 3.895,23.1641667 L7.23583333,20.5358333 L7.125,19 L7.23583333,17.4166667 L3.895,14.8358333 C3.58587498,14.593883 3.50452209,14.1600009 3.705,13.8225 L6.87166667,8.34416667 C7.06166667,7.99583333 7.48916667,7.85333333 7.8375,7.99583333 L11.78,9.57916667 C12.6033333,8.96166667 13.4583333,8.42333333 14.4558333,8.0275 L15.0416667,3.83166667 C15.105,3.45166667 15.4375,3.16666667 15.8333333,3.16666667 L22.1666667,3.16666667 C22.5625,3.16666667 22.895,3.45166667 22.9583333,3.83166667 L23.5441667,8.0275 C24.5416667,8.42333333 25.3966667,8.96166667 26.22,9.57916667 L30.1625,7.99583333 C30.5108333,7.85333333 30.9383333,7.99583333 31.1283333,8.34416667 L34.295,13.8225 C34.5008333,14.1708333 34.4058333,14.5983333 34.105,14.8358333 L30.7641667,17.4166667 L30.875,19 L30.7641667,20.5833333 L34.105,23.1641667 C34.4058333,23.4016667 34.5008333,23.8291667 34.295,24.1775 L31.1283333,29.6558333 C30.9383333,30.0041667 30.5108333,30.1466667 30.1625,30.0041667 L26.22,28.4208333 C25.3966667,29.0383333 24.5416667,29.5766667 23.5441667,29.9725 L22.9583333,34.1683333 C22.895,34.5483333 22.5625,34.8333333 22.1666667,34.8333333 L15.8333333,34.8333333 M17.8125,6.33333333 L17.2266667,10.4658333 C15.3266667,10.8616667 13.6483333,11.875 12.4291667,13.2841667 L8.61333333,11.6375 L7.42583333,13.6958333 L10.7666667,16.15 C10.1333333,17.9972222 10.1333333,20.0027778 10.7666667,21.85 L7.41,24.32 L8.5975,26.3783333 L12.445,24.7316667 C13.6641667,26.125 15.3266667,27.1383333 17.2108333,27.5183333 L17.7966667,31.6666667 L20.2033333,31.6666667 L20.7891667,27.5341667 C22.6733333,27.1383333 24.3358333,26.125 25.555,24.7316667 L29.4025,26.3783333 L30.59,24.32 L27.2333333,21.8658333 C27.8666667,20.0133333 27.8666667,18.0025 27.2333333,16.15 L30.5741667,13.6958333 L29.3866667,11.6375 L25.5708333,13.2841667 C24.3266861,11.8438445 22.6390276,10.8579846 20.7733333,10.4816667 L20.1875,6.33333333 L17.8125,6.33333333 L17.8125,6.33333333 Z" id="Shape" fill="#D2D2D2" fill-rule="nonzero"></path>
        </g>
    </g>
</svg>