<?xml version="1.0" encoding="UTF-8"?>
<svg width="40px" height="40px" viewBox="0 0 40 40" version="1.1" xmlns="http://www.w3.org/2000/svg" xmlns:xlink="http://www.w3.org/1999/xlink">
    <title>Alerts@1.5x</title>
    <g id="Alerts" stroke="none" stroke-width="1" fill="none" fill-rule="evenodd">
        <g id="mdi:bell-outline" transform="translate(2.000000, 2.000000)">
            <rect id="ViewBox" x="0" y="0" width="36" height="36"></rect>
            <path d="M24,25.5 L10.5,25.5 L10.5,15.75 C10.5,12 13.5,9 17.25,9 C21,9 24,12 24,15.75 M27,24 L27,15.75 C27,11.145 23.79,7.29 19.5,6.27 L19.5,5.25 C19.5,4.00735931 18.4926407,3 17.25,3 C16.0073593,3 15,4.00735931 15,5.25 L15,6.27 C10.695,7.29 7.5,11.145 7.5,15.75 L7.5,24 L4.5,27 L4.5,28.5 L30,28.5 L30,27 M17.25,33 C18.9068542,33 20.25,31.6568542 20.25,30 L14.25,30 C14.25,31.6568542 15.5931458,33 17.25,33 Z" id="Shape" fill="#D2D2D2" fill-rule="nonzero"></path>
        </g>
    </g>
</svg>