<?xml version="1.0" encoding="UTF-8"?>
<svg width="40px" height="40px" viewBox="0 0 40 40" version="1.1" xmlns="http://www.w3.org/2000/svg" xmlns:xlink="http://www.w3.org/1999/xlink">
    <title>Evaluations@1.5x</title>
    <g id="Evaluations" stroke="none" stroke-width="1" fill="none" fill-rule="evenodd">
        <g id="note_alt_black_24dp" transform="translate(1.000000, 1.000000)">
            <polygon id="Path" points="0 0 38 0 38 38 0 38"></polygon>
            <g id="Group" transform="translate(4.750000, 1.583333)" fill="#D2D2D2" fill-rule="nonzero">
                <path d="M25.3333333,3.16666667 L18.715,3.16666667 C18.05,1.33 16.3083333,0 14.25,0 C12.1916667,0 10.45,1.33 9.785,3.16666667 L3.16666667,3.16666667 C1.425,3.16666667 0,4.59166667 0,6.33333333 L0,28.5 C0,30.2416667 1.425,31.6666667 3.16666667,31.6666667 L25.3333333,31.6666667 C27.075,31.6666667 28.5,30.2416667 28.5,28.5 L28.5,6.33333333 C28.5,4.59166667 27.075,3.16666667 25.3333333,3.16666667 Z M14.25,2.77083333 C14.8991667,2.77083333 15.4375,3.30916667 15.4375,3.95833333 C15.4375,4.6075 14.8991667,5.14583333 14.25,5.14583333 C13.6008333,5.14583333 13.0625,4.6075 13.0625,3.95833333 C13.0625,3.30916667 13.6008333,2.77083333 14.25,2.77083333 Z M25.3333333,28.5 L3.16666667,28.5 L3.16666667,6.33333333 L25.3333333,6.33333333 L25.3333333,28.5 Z" id="Shape"></path>
                <polygon id="Path" points="19.1266667 15.8808333 15.77 12.5241667 6.33333333 21.945 6.33333333 25.3333333 9.65833333 25.3333333"></polygon>
                <path d="M21.9291667,13.0941667 C22.2458333,12.7775 22.2458333,12.2866667 21.9291667,11.97 L19.6966667,9.7375 C19.38,9.42083333 18.8891667,9.42083333 18.5725,9.7375 L16.8941667,11.4158333 L20.2508333,14.7725 L21.9291667,13.0941667 Z" id="Path"></path>
            </g>
        </g>
    </g>
</svg>