<?xml version="1.0" encoding="UTF-8"?>
<svg width="40px" height="40px" viewBox="0 0 40 40" version="1.1" xmlns="http://www.w3.org/2000/svg" xmlns:xlink="http://www.w3.org/1999/xlink">
    <title>Surveys@1.5x</title>
    <g id="Surveys" stroke="none" stroke-width="1" fill="none" fill-rule="evenodd">
        <g id="mdi:chart-box-outline" transform="translate(1.000000, 1.000000)">
            <rect id="ViewBox" x="0" y="0" width="38" height="38"></rect>
            <path d="M14.25,26.9166667 L11.0833333,26.9166667 L11.0833333,15.8333333 L14.25,15.8333333 L14.25,26.9166667 M20.5833333,26.9166667 L17.4166667,26.9166667 L17.4166667,11.0833333 L20.5833333,11.0833333 L20.5833333,26.9166667 M26.9166667,26.9166667 L23.75,26.9166667 L23.75,20.5833333 L26.9166667,20.5833333 L26.9166667,26.9166667 M30.0833333,30.0833333 L7.91666667,30.0833333 L7.91666667,7.91666667 L30.0833333,7.91666667 L30.0833333,30.2416667 M30.0833333,4.75 L7.91666667,4.75 C6.175,4.75 4.75,6.175 4.75,7.91666667 L4.75,30.0833333 C4.75,31.825 6.175,33.25 7.91666667,33.25 L30.0833333,33.25 C31.825,33.25 33.25,31.825 33.25,30.0833333 L33.25,7.91666667 C33.25,6.175 31.825,4.75 30.0833333,4.75 Z" id="Shape" fill="#D2D2D2" fill-rule="nonzero"></path>
        </g>
    </g>
</svg>