<?xml version="1.0" encoding="UTF-8"?>
<svg width="40px" height="40px" viewBox="0 0 40 40" version="1.1" xmlns="http://www.w3.org/2000/svg" xmlns:xlink="http://www.w3.org/1999/xlink">
    <title>Voting@1.5x</title>
    <g id="Voting" stroke="none" stroke-width="1" fill="none" fill-rule="evenodd">
        <g id="mdi:vote-outline" transform="translate(1.000000, 1.000000)">
            <rect id="ViewBox" x="0" y="0" width="38" height="38"></rect>
            <path d="M28.5,20.5833333 L33.25,25.3333333 L33.25,31.6666667 C33.25,33.4155684 31.832235,34.8333333 30.0833333,34.8333333 L7.91666667,34.8333333 C6.16776496,34.8333333 4.75,33.4155684 4.75,31.6666667 L4.75,25.3333333 L9.5,20.5833333 L10.8141667,20.5833333 L13.9808333,23.75 L10.735,23.75 L7.91666667,26.9166667 L30.0833333,26.9166667 L27.2808333,23.75 L24.2566667,23.75 L27.4233333,20.5833333 L28.5,20.5833333 M30.0833333,31.6666667 L30.0833333,30.0833333 L7.91666667,30.0833333 L7.91666667,31.6666667 L30.0833333,31.6666667 M17.955,23.75 L10.1175,15.9441667 C9.82105553,15.6483294 9.65446362,15.2467233 9.65446362,14.8279167 C9.65446362,14.40911 9.82105553,14.0075039 10.1175,13.7116667 L20.2033333,3.62583333 C20.4962298,3.32801232 20.8973137,3.1615974 21.3150179,3.16454157 C21.7327221,3.1675646 22.1313878,3.33969202 22.42,3.64166667 L30.2575,11.4791667 C30.875,12.0966667 30.875,13.0941667 30.2575,13.7116667 L20.1875,23.75 C19.8992942,24.0604255 19.4948378,24.236816 19.07125,24.236816 C18.6476622,24.236816 18.2432058,24.0604255 17.955,23.75 M21.3116667,6.9825 L13.4583333,14.82 L19.0791667,20.425 L26.9166667,12.5875 L21.3116667,6.9825 L21.3116667,6.9825 Z" id="Shape" fill="#D2D2D2" fill-rule="nonzero"></path>
        </g>
    </g>
</svg>